G04 #@! TF.GenerationSoftware,KiCad,Pcbnew,(5.1.5-0-10_14)*
G04 #@! TF.CreationDate,2020-05-27T20:18:48+02:00*
G04 #@! TF.ProjectId,roxie-lcd,726f7869-652d-46c6-9364-2e6b69636164,rev?*
G04 #@! TF.SameCoordinates,Original*
G04 #@! TF.FileFunction,Copper,L2,Bot*
G04 #@! TF.FilePolarity,Positive*
%FSLAX46Y46*%
G04 Gerber Fmt 4.6, Leading zero omitted, Abs format (unit mm)*
G04 Created by KiCad (PCBNEW (5.1.5-0-10_14)) date 2020-05-27 20:18:48*
%MOMM*%
%LPD*%
G04 APERTURE LIST*
%ADD10O,1.350000X1.350000*%
%ADD11R,1.350000X1.350000*%
%ADD12C,0.800000*%
%ADD13C,0.500000*%
%ADD14C,0.254000*%
G04 APERTURE END LIST*
D10*
X85852000Y-28258000D03*
X85852000Y-30258000D03*
X85852000Y-32258000D03*
X85852000Y-34258000D03*
X85852000Y-36258000D03*
X85852000Y-38258000D03*
X85852000Y-40258000D03*
X85852000Y-42258000D03*
X85852000Y-44258000D03*
X85852000Y-46258000D03*
D11*
X85852000Y-48258000D03*
D12*
X61468000Y-43434000D03*
X72771000Y-45847000D03*
X73406000Y-36322000D03*
X59436000Y-36957000D03*
X48260000Y-50165000D03*
X43815000Y-49530000D03*
X43815000Y-31750000D03*
X43815000Y-26035000D03*
X65024000Y-28702000D03*
X52578000Y-52832000D03*
X65278000Y-39370000D03*
X66040000Y-30988000D03*
D13*
X53328002Y-52832000D02*
X64770000Y-41390002D01*
X52578000Y-52832000D02*
X53328002Y-52832000D01*
X64770000Y-39878000D02*
X65278000Y-39370000D01*
X64770000Y-41390002D02*
X64770000Y-39878000D01*
D14*
G36*
X88265000Y-57785000D02*
G01*
X19685000Y-57785000D01*
X19685000Y-52730061D01*
X51543000Y-52730061D01*
X51543000Y-52933939D01*
X51582774Y-53133898D01*
X51660795Y-53322256D01*
X51774063Y-53491774D01*
X51918226Y-53635937D01*
X52087744Y-53749205D01*
X52276102Y-53827226D01*
X52476061Y-53867000D01*
X52679939Y-53867000D01*
X52879898Y-53827226D01*
X53068256Y-53749205D01*
X53116454Y-53717000D01*
X53284533Y-53717000D01*
X53328002Y-53721281D01*
X53371471Y-53717000D01*
X53371479Y-53717000D01*
X53501492Y-53704195D01*
X53668315Y-53653589D01*
X53822061Y-53571411D01*
X53956819Y-53460817D01*
X53984536Y-53427044D01*
X59828580Y-47583000D01*
X84538928Y-47583000D01*
X84538928Y-48933000D01*
X84551188Y-49057482D01*
X84587498Y-49177180D01*
X84646463Y-49287494D01*
X84725815Y-49384185D01*
X84822506Y-49463537D01*
X84932820Y-49522502D01*
X85052518Y-49558812D01*
X85177000Y-49571072D01*
X86527000Y-49571072D01*
X86651482Y-49558812D01*
X86771180Y-49522502D01*
X86881494Y-49463537D01*
X86978185Y-49384185D01*
X87057537Y-49287494D01*
X87116502Y-49177180D01*
X87152812Y-49057482D01*
X87165072Y-48933000D01*
X87165072Y-47583000D01*
X87152812Y-47458518D01*
X87116502Y-47338820D01*
X87057537Y-47228506D01*
X86978185Y-47131815D01*
X86884441Y-47054881D01*
X86981473Y-46921629D01*
X87089238Y-46688528D01*
X87119910Y-46587400D01*
X86996224Y-46385000D01*
X85979000Y-46385000D01*
X85979000Y-46405000D01*
X85725000Y-46405000D01*
X85725000Y-46385000D01*
X84707776Y-46385000D01*
X84584090Y-46587400D01*
X84614762Y-46688528D01*
X84722527Y-46921629D01*
X84819559Y-47054881D01*
X84725815Y-47131815D01*
X84646463Y-47228506D01*
X84587498Y-47338820D01*
X84551188Y-47458518D01*
X84538928Y-47583000D01*
X59828580Y-47583000D01*
X62824180Y-44587400D01*
X84584090Y-44587400D01*
X84614762Y-44688528D01*
X84722527Y-44921629D01*
X84873697Y-45129227D01*
X85013304Y-45258000D01*
X84873697Y-45386773D01*
X84722527Y-45594371D01*
X84614762Y-45827472D01*
X84584090Y-45928600D01*
X84707776Y-46131000D01*
X85725000Y-46131000D01*
X85725000Y-44385000D01*
X85979000Y-44385000D01*
X85979000Y-46131000D01*
X86996224Y-46131000D01*
X87119910Y-45928600D01*
X87089238Y-45827472D01*
X86981473Y-45594371D01*
X86830303Y-45386773D01*
X86690696Y-45258000D01*
X86830303Y-45129227D01*
X86981473Y-44921629D01*
X87089238Y-44688528D01*
X87119910Y-44587400D01*
X86996224Y-44385000D01*
X85979000Y-44385000D01*
X85725000Y-44385000D01*
X84707776Y-44385000D01*
X84584090Y-44587400D01*
X62824180Y-44587400D01*
X65365051Y-42046530D01*
X65398817Y-42018819D01*
X65509411Y-41884061D01*
X65591589Y-41730315D01*
X65642195Y-41563492D01*
X65655000Y-41433479D01*
X65655000Y-41433471D01*
X65659281Y-41390002D01*
X65655000Y-41346533D01*
X65655000Y-40334118D01*
X65768256Y-40287205D01*
X65937774Y-40173937D01*
X66081937Y-40029774D01*
X66195205Y-39860256D01*
X66273226Y-39671898D01*
X66313000Y-39471939D01*
X66313000Y-39268061D01*
X66273226Y-39068102D01*
X66195205Y-38879744D01*
X66081937Y-38710226D01*
X65937774Y-38566063D01*
X65768256Y-38452795D01*
X65579898Y-38374774D01*
X65379939Y-38335000D01*
X65176061Y-38335000D01*
X64976102Y-38374774D01*
X64787744Y-38452795D01*
X64618226Y-38566063D01*
X64474063Y-38710226D01*
X64360795Y-38879744D01*
X64282774Y-39068102D01*
X64271465Y-39124957D01*
X64174952Y-39221470D01*
X64141184Y-39249183D01*
X64113471Y-39282951D01*
X64113468Y-39282954D01*
X64030590Y-39383941D01*
X63948412Y-39537687D01*
X63897805Y-39704510D01*
X63880719Y-39878000D01*
X63885001Y-39921479D01*
X63885000Y-41023423D01*
X53015487Y-51892937D01*
X52879898Y-51836774D01*
X52679939Y-51797000D01*
X52476061Y-51797000D01*
X52276102Y-51836774D01*
X52087744Y-51914795D01*
X51918226Y-52028063D01*
X51774063Y-52172226D01*
X51660795Y-52341744D01*
X51582774Y-52530102D01*
X51543000Y-52730061D01*
X19685000Y-52730061D01*
X19685000Y-30886061D01*
X65005000Y-30886061D01*
X65005000Y-31089939D01*
X65044774Y-31289898D01*
X65122795Y-31478256D01*
X65236063Y-31647774D01*
X65380226Y-31791937D01*
X65549744Y-31905205D01*
X65738102Y-31983226D01*
X65938061Y-32023000D01*
X66141939Y-32023000D01*
X66341898Y-31983226D01*
X66530256Y-31905205D01*
X66699774Y-31791937D01*
X66843937Y-31647774D01*
X66957205Y-31478256D01*
X67035226Y-31289898D01*
X67075000Y-31089939D01*
X67075000Y-30886061D01*
X67035226Y-30686102D01*
X66957205Y-30497744D01*
X66843937Y-30328226D01*
X66699774Y-30184063D01*
X66530256Y-30070795D01*
X66341898Y-29992774D01*
X66141939Y-29953000D01*
X65938061Y-29953000D01*
X65738102Y-29992774D01*
X65549744Y-30070795D01*
X65380226Y-30184063D01*
X65236063Y-30328226D01*
X65122795Y-30497744D01*
X65044774Y-30686102D01*
X65005000Y-30886061D01*
X19685000Y-30886061D01*
X19685000Y-28128976D01*
X84542000Y-28128976D01*
X84542000Y-28387024D01*
X84592342Y-28640113D01*
X84691093Y-28878518D01*
X84834456Y-29093077D01*
X84999379Y-29258000D01*
X84834456Y-29422923D01*
X84691093Y-29637482D01*
X84592342Y-29875887D01*
X84542000Y-30128976D01*
X84542000Y-30387024D01*
X84592342Y-30640113D01*
X84691093Y-30878518D01*
X84834456Y-31093077D01*
X84999379Y-31258000D01*
X84834456Y-31422923D01*
X84691093Y-31637482D01*
X84592342Y-31875887D01*
X84542000Y-32128976D01*
X84542000Y-32387024D01*
X84592342Y-32640113D01*
X84691093Y-32878518D01*
X84834456Y-33093077D01*
X84999379Y-33258000D01*
X84834456Y-33422923D01*
X84691093Y-33637482D01*
X84592342Y-33875887D01*
X84542000Y-34128976D01*
X84542000Y-34387024D01*
X84592342Y-34640113D01*
X84691093Y-34878518D01*
X84834456Y-35093077D01*
X84999379Y-35258000D01*
X84834456Y-35422923D01*
X84691093Y-35637482D01*
X84592342Y-35875887D01*
X84542000Y-36128976D01*
X84542000Y-36387024D01*
X84592342Y-36640113D01*
X84691093Y-36878518D01*
X84834456Y-37093077D01*
X84999379Y-37258000D01*
X84834456Y-37422923D01*
X84691093Y-37637482D01*
X84592342Y-37875887D01*
X84542000Y-38128976D01*
X84542000Y-38387024D01*
X84592342Y-38640113D01*
X84691093Y-38878518D01*
X84834456Y-39093077D01*
X84999379Y-39258000D01*
X84834456Y-39422923D01*
X84691093Y-39637482D01*
X84592342Y-39875887D01*
X84542000Y-40128976D01*
X84542000Y-40387024D01*
X84592342Y-40640113D01*
X84691093Y-40878518D01*
X84834456Y-41093077D01*
X84999379Y-41258000D01*
X84834456Y-41422923D01*
X84691093Y-41637482D01*
X84592342Y-41875887D01*
X84542000Y-42128976D01*
X84542000Y-42387024D01*
X84592342Y-42640113D01*
X84691093Y-42878518D01*
X84834456Y-43093077D01*
X85006060Y-43264681D01*
X84873697Y-43386773D01*
X84722527Y-43594371D01*
X84614762Y-43827472D01*
X84584090Y-43928600D01*
X84707776Y-44131000D01*
X85725000Y-44131000D01*
X85725000Y-44111000D01*
X85979000Y-44111000D01*
X85979000Y-44131000D01*
X86996224Y-44131000D01*
X87119910Y-43928600D01*
X87089238Y-43827472D01*
X86981473Y-43594371D01*
X86830303Y-43386773D01*
X86697940Y-43264681D01*
X86869544Y-43093077D01*
X87012907Y-42878518D01*
X87111658Y-42640113D01*
X87162000Y-42387024D01*
X87162000Y-42128976D01*
X87111658Y-41875887D01*
X87012907Y-41637482D01*
X86869544Y-41422923D01*
X86704621Y-41258000D01*
X86869544Y-41093077D01*
X87012907Y-40878518D01*
X87111658Y-40640113D01*
X87162000Y-40387024D01*
X87162000Y-40128976D01*
X87111658Y-39875887D01*
X87012907Y-39637482D01*
X86869544Y-39422923D01*
X86704621Y-39258000D01*
X86869544Y-39093077D01*
X87012907Y-38878518D01*
X87111658Y-38640113D01*
X87162000Y-38387024D01*
X87162000Y-38128976D01*
X87111658Y-37875887D01*
X87012907Y-37637482D01*
X86869544Y-37422923D01*
X86704621Y-37258000D01*
X86869544Y-37093077D01*
X87012907Y-36878518D01*
X87111658Y-36640113D01*
X87162000Y-36387024D01*
X87162000Y-36128976D01*
X87111658Y-35875887D01*
X87012907Y-35637482D01*
X86869544Y-35422923D01*
X86704621Y-35258000D01*
X86869544Y-35093077D01*
X87012907Y-34878518D01*
X87111658Y-34640113D01*
X87162000Y-34387024D01*
X87162000Y-34128976D01*
X87111658Y-33875887D01*
X87012907Y-33637482D01*
X86869544Y-33422923D01*
X86704621Y-33258000D01*
X86869544Y-33093077D01*
X87012907Y-32878518D01*
X87111658Y-32640113D01*
X87162000Y-32387024D01*
X87162000Y-32128976D01*
X87111658Y-31875887D01*
X87012907Y-31637482D01*
X86869544Y-31422923D01*
X86704621Y-31258000D01*
X86869544Y-31093077D01*
X87012907Y-30878518D01*
X87111658Y-30640113D01*
X87162000Y-30387024D01*
X87162000Y-30128976D01*
X87111658Y-29875887D01*
X87012907Y-29637482D01*
X86869544Y-29422923D01*
X86704621Y-29258000D01*
X86869544Y-29093077D01*
X87012907Y-28878518D01*
X87111658Y-28640113D01*
X87162000Y-28387024D01*
X87162000Y-28128976D01*
X87111658Y-27875887D01*
X87012907Y-27637482D01*
X86869544Y-27422923D01*
X86687077Y-27240456D01*
X86472518Y-27097093D01*
X86234113Y-26998342D01*
X85981024Y-26948000D01*
X85722976Y-26948000D01*
X85469887Y-26998342D01*
X85231482Y-27097093D01*
X85016923Y-27240456D01*
X84834456Y-27422923D01*
X84691093Y-27637482D01*
X84592342Y-27875887D01*
X84542000Y-28128976D01*
X19685000Y-28128976D01*
X19685000Y-19685000D01*
X88265000Y-19685000D01*
X88265000Y-57785000D01*
G37*
X88265000Y-57785000D02*
X19685000Y-57785000D01*
X19685000Y-52730061D01*
X51543000Y-52730061D01*
X51543000Y-52933939D01*
X51582774Y-53133898D01*
X51660795Y-53322256D01*
X51774063Y-53491774D01*
X51918226Y-53635937D01*
X52087744Y-53749205D01*
X52276102Y-53827226D01*
X52476061Y-53867000D01*
X52679939Y-53867000D01*
X52879898Y-53827226D01*
X53068256Y-53749205D01*
X53116454Y-53717000D01*
X53284533Y-53717000D01*
X53328002Y-53721281D01*
X53371471Y-53717000D01*
X53371479Y-53717000D01*
X53501492Y-53704195D01*
X53668315Y-53653589D01*
X53822061Y-53571411D01*
X53956819Y-53460817D01*
X53984536Y-53427044D01*
X59828580Y-47583000D01*
X84538928Y-47583000D01*
X84538928Y-48933000D01*
X84551188Y-49057482D01*
X84587498Y-49177180D01*
X84646463Y-49287494D01*
X84725815Y-49384185D01*
X84822506Y-49463537D01*
X84932820Y-49522502D01*
X85052518Y-49558812D01*
X85177000Y-49571072D01*
X86527000Y-49571072D01*
X86651482Y-49558812D01*
X86771180Y-49522502D01*
X86881494Y-49463537D01*
X86978185Y-49384185D01*
X87057537Y-49287494D01*
X87116502Y-49177180D01*
X87152812Y-49057482D01*
X87165072Y-48933000D01*
X87165072Y-47583000D01*
X87152812Y-47458518D01*
X87116502Y-47338820D01*
X87057537Y-47228506D01*
X86978185Y-47131815D01*
X86884441Y-47054881D01*
X86981473Y-46921629D01*
X87089238Y-46688528D01*
X87119910Y-46587400D01*
X86996224Y-46385000D01*
X85979000Y-46385000D01*
X85979000Y-46405000D01*
X85725000Y-46405000D01*
X85725000Y-46385000D01*
X84707776Y-46385000D01*
X84584090Y-46587400D01*
X84614762Y-46688528D01*
X84722527Y-46921629D01*
X84819559Y-47054881D01*
X84725815Y-47131815D01*
X84646463Y-47228506D01*
X84587498Y-47338820D01*
X84551188Y-47458518D01*
X84538928Y-47583000D01*
X59828580Y-47583000D01*
X62824180Y-44587400D01*
X84584090Y-44587400D01*
X84614762Y-44688528D01*
X84722527Y-44921629D01*
X84873697Y-45129227D01*
X85013304Y-45258000D01*
X84873697Y-45386773D01*
X84722527Y-45594371D01*
X84614762Y-45827472D01*
X84584090Y-45928600D01*
X84707776Y-46131000D01*
X85725000Y-46131000D01*
X85725000Y-44385000D01*
X85979000Y-44385000D01*
X85979000Y-46131000D01*
X86996224Y-46131000D01*
X87119910Y-45928600D01*
X87089238Y-45827472D01*
X86981473Y-45594371D01*
X86830303Y-45386773D01*
X86690696Y-45258000D01*
X86830303Y-45129227D01*
X86981473Y-44921629D01*
X87089238Y-44688528D01*
X87119910Y-44587400D01*
X86996224Y-44385000D01*
X85979000Y-44385000D01*
X85725000Y-44385000D01*
X84707776Y-44385000D01*
X84584090Y-44587400D01*
X62824180Y-44587400D01*
X65365051Y-42046530D01*
X65398817Y-42018819D01*
X65509411Y-41884061D01*
X65591589Y-41730315D01*
X65642195Y-41563492D01*
X65655000Y-41433479D01*
X65655000Y-41433471D01*
X65659281Y-41390002D01*
X65655000Y-41346533D01*
X65655000Y-40334118D01*
X65768256Y-40287205D01*
X65937774Y-40173937D01*
X66081937Y-40029774D01*
X66195205Y-39860256D01*
X66273226Y-39671898D01*
X66313000Y-39471939D01*
X66313000Y-39268061D01*
X66273226Y-39068102D01*
X66195205Y-38879744D01*
X66081937Y-38710226D01*
X65937774Y-38566063D01*
X65768256Y-38452795D01*
X65579898Y-38374774D01*
X65379939Y-38335000D01*
X65176061Y-38335000D01*
X64976102Y-38374774D01*
X64787744Y-38452795D01*
X64618226Y-38566063D01*
X64474063Y-38710226D01*
X64360795Y-38879744D01*
X64282774Y-39068102D01*
X64271465Y-39124957D01*
X64174952Y-39221470D01*
X64141184Y-39249183D01*
X64113471Y-39282951D01*
X64113468Y-39282954D01*
X64030590Y-39383941D01*
X63948412Y-39537687D01*
X63897805Y-39704510D01*
X63880719Y-39878000D01*
X63885001Y-39921479D01*
X63885000Y-41023423D01*
X53015487Y-51892937D01*
X52879898Y-51836774D01*
X52679939Y-51797000D01*
X52476061Y-51797000D01*
X52276102Y-51836774D01*
X52087744Y-51914795D01*
X51918226Y-52028063D01*
X51774063Y-52172226D01*
X51660795Y-52341744D01*
X51582774Y-52530102D01*
X51543000Y-52730061D01*
X19685000Y-52730061D01*
X19685000Y-30886061D01*
X65005000Y-30886061D01*
X65005000Y-31089939D01*
X65044774Y-31289898D01*
X65122795Y-31478256D01*
X65236063Y-31647774D01*
X65380226Y-31791937D01*
X65549744Y-31905205D01*
X65738102Y-31983226D01*
X65938061Y-32023000D01*
X66141939Y-32023000D01*
X66341898Y-31983226D01*
X66530256Y-31905205D01*
X66699774Y-31791937D01*
X66843937Y-31647774D01*
X66957205Y-31478256D01*
X67035226Y-31289898D01*
X67075000Y-31089939D01*
X67075000Y-30886061D01*
X67035226Y-30686102D01*
X66957205Y-30497744D01*
X66843937Y-30328226D01*
X66699774Y-30184063D01*
X66530256Y-30070795D01*
X66341898Y-29992774D01*
X66141939Y-29953000D01*
X65938061Y-29953000D01*
X65738102Y-29992774D01*
X65549744Y-30070795D01*
X65380226Y-30184063D01*
X65236063Y-30328226D01*
X65122795Y-30497744D01*
X65044774Y-30686102D01*
X65005000Y-30886061D01*
X19685000Y-30886061D01*
X19685000Y-28128976D01*
X84542000Y-28128976D01*
X84542000Y-28387024D01*
X84592342Y-28640113D01*
X84691093Y-28878518D01*
X84834456Y-29093077D01*
X84999379Y-29258000D01*
X84834456Y-29422923D01*
X84691093Y-29637482D01*
X84592342Y-29875887D01*
X84542000Y-30128976D01*
X84542000Y-30387024D01*
X84592342Y-30640113D01*
X84691093Y-30878518D01*
X84834456Y-31093077D01*
X84999379Y-31258000D01*
X84834456Y-31422923D01*
X84691093Y-31637482D01*
X84592342Y-31875887D01*
X84542000Y-32128976D01*
X84542000Y-32387024D01*
X84592342Y-32640113D01*
X84691093Y-32878518D01*
X84834456Y-33093077D01*
X84999379Y-33258000D01*
X84834456Y-33422923D01*
X84691093Y-33637482D01*
X84592342Y-33875887D01*
X84542000Y-34128976D01*
X84542000Y-34387024D01*
X84592342Y-34640113D01*
X84691093Y-34878518D01*
X84834456Y-35093077D01*
X84999379Y-35258000D01*
X84834456Y-35422923D01*
X84691093Y-35637482D01*
X84592342Y-35875887D01*
X84542000Y-36128976D01*
X84542000Y-36387024D01*
X84592342Y-36640113D01*
X84691093Y-36878518D01*
X84834456Y-37093077D01*
X84999379Y-37258000D01*
X84834456Y-37422923D01*
X84691093Y-37637482D01*
X84592342Y-37875887D01*
X84542000Y-38128976D01*
X84542000Y-38387024D01*
X84592342Y-38640113D01*
X84691093Y-38878518D01*
X84834456Y-39093077D01*
X84999379Y-39258000D01*
X84834456Y-39422923D01*
X84691093Y-39637482D01*
X84592342Y-39875887D01*
X84542000Y-40128976D01*
X84542000Y-40387024D01*
X84592342Y-40640113D01*
X84691093Y-40878518D01*
X84834456Y-41093077D01*
X84999379Y-41258000D01*
X84834456Y-41422923D01*
X84691093Y-41637482D01*
X84592342Y-41875887D01*
X84542000Y-42128976D01*
X84542000Y-42387024D01*
X84592342Y-42640113D01*
X84691093Y-42878518D01*
X84834456Y-43093077D01*
X85006060Y-43264681D01*
X84873697Y-43386773D01*
X84722527Y-43594371D01*
X84614762Y-43827472D01*
X84584090Y-43928600D01*
X84707776Y-44131000D01*
X85725000Y-44131000D01*
X85725000Y-44111000D01*
X85979000Y-44111000D01*
X85979000Y-44131000D01*
X86996224Y-44131000D01*
X87119910Y-43928600D01*
X87089238Y-43827472D01*
X86981473Y-43594371D01*
X86830303Y-43386773D01*
X86697940Y-43264681D01*
X86869544Y-43093077D01*
X87012907Y-42878518D01*
X87111658Y-42640113D01*
X87162000Y-42387024D01*
X87162000Y-42128976D01*
X87111658Y-41875887D01*
X87012907Y-41637482D01*
X86869544Y-41422923D01*
X86704621Y-41258000D01*
X86869544Y-41093077D01*
X87012907Y-40878518D01*
X87111658Y-40640113D01*
X87162000Y-40387024D01*
X87162000Y-40128976D01*
X87111658Y-39875887D01*
X87012907Y-39637482D01*
X86869544Y-39422923D01*
X86704621Y-39258000D01*
X86869544Y-39093077D01*
X87012907Y-38878518D01*
X87111658Y-38640113D01*
X87162000Y-38387024D01*
X87162000Y-38128976D01*
X87111658Y-37875887D01*
X87012907Y-37637482D01*
X86869544Y-37422923D01*
X86704621Y-37258000D01*
X86869544Y-37093077D01*
X87012907Y-36878518D01*
X87111658Y-36640113D01*
X87162000Y-36387024D01*
X87162000Y-36128976D01*
X87111658Y-35875887D01*
X87012907Y-35637482D01*
X86869544Y-35422923D01*
X86704621Y-35258000D01*
X86869544Y-35093077D01*
X87012907Y-34878518D01*
X87111658Y-34640113D01*
X87162000Y-34387024D01*
X87162000Y-34128976D01*
X87111658Y-33875887D01*
X87012907Y-33637482D01*
X86869544Y-33422923D01*
X86704621Y-33258000D01*
X86869544Y-33093077D01*
X87012907Y-32878518D01*
X87111658Y-32640113D01*
X87162000Y-32387024D01*
X87162000Y-32128976D01*
X87111658Y-31875887D01*
X87012907Y-31637482D01*
X86869544Y-31422923D01*
X86704621Y-31258000D01*
X86869544Y-31093077D01*
X87012907Y-30878518D01*
X87111658Y-30640113D01*
X87162000Y-30387024D01*
X87162000Y-30128976D01*
X87111658Y-29875887D01*
X87012907Y-29637482D01*
X86869544Y-29422923D01*
X86704621Y-29258000D01*
X86869544Y-29093077D01*
X87012907Y-28878518D01*
X87111658Y-28640113D01*
X87162000Y-28387024D01*
X87162000Y-28128976D01*
X87111658Y-27875887D01*
X87012907Y-27637482D01*
X86869544Y-27422923D01*
X86687077Y-27240456D01*
X86472518Y-27097093D01*
X86234113Y-26998342D01*
X85981024Y-26948000D01*
X85722976Y-26948000D01*
X85469887Y-26998342D01*
X85231482Y-27097093D01*
X85016923Y-27240456D01*
X84834456Y-27422923D01*
X84691093Y-27637482D01*
X84592342Y-27875887D01*
X84542000Y-28128976D01*
X19685000Y-28128976D01*
X19685000Y-19685000D01*
X88265000Y-19685000D01*
X88265000Y-57785000D01*
M02*
