G04 #@! TF.GenerationSoftware,KiCad,Pcbnew,(5.1.5-0-10_14)*
G04 #@! TF.CreationDate,2020-05-27T20:18:48+02:00*
G04 #@! TF.ProjectId,roxie-lcd,726f7869-652d-46c6-9364-2e6b69636164,rev?*
G04 #@! TF.SameCoordinates,Original*
G04 #@! TF.FileFunction,Soldermask,Top*
G04 #@! TF.FilePolarity,Negative*
%FSLAX46Y46*%
G04 Gerber Fmt 4.6, Leading zero omitted, Abs format (unit mm)*
G04 Created by KiCad (PCBNEW (5.1.5-0-10_14)) date 2020-05-27 20:18:48*
%MOMM*%
%LPD*%
G04 APERTURE LIST*
%ADD10C,0.100000*%
G04 APERTURE END LIST*
D10*
G36*
X46734591Y-55548085D02*
G01*
X46768569Y-55558393D01*
X46799890Y-55575134D01*
X46827339Y-55597661D01*
X46849866Y-55625110D01*
X46866607Y-55656431D01*
X46876915Y-55690409D01*
X46881000Y-55731890D01*
X46881000Y-56333110D01*
X46876915Y-56374591D01*
X46866607Y-56408569D01*
X46849866Y-56439890D01*
X46827339Y-56467339D01*
X46799890Y-56489866D01*
X46768569Y-56506607D01*
X46734591Y-56516915D01*
X46693110Y-56521000D01*
X46016890Y-56521000D01*
X45975409Y-56516915D01*
X45941431Y-56506607D01*
X45910110Y-56489866D01*
X45882661Y-56467339D01*
X45860134Y-56439890D01*
X45843393Y-56408569D01*
X45833085Y-56374591D01*
X45829000Y-56333110D01*
X45829000Y-55731890D01*
X45833085Y-55690409D01*
X45843393Y-55656431D01*
X45860134Y-55625110D01*
X45882661Y-55597661D01*
X45910110Y-55575134D01*
X45941431Y-55558393D01*
X45975409Y-55548085D01*
X46016890Y-55544000D01*
X46693110Y-55544000D01*
X46734591Y-55548085D01*
G37*
G36*
X44194591Y-55548085D02*
G01*
X44228569Y-55558393D01*
X44259890Y-55575134D01*
X44287339Y-55597661D01*
X44309866Y-55625110D01*
X44326607Y-55656431D01*
X44336915Y-55690409D01*
X44341000Y-55731890D01*
X44341000Y-56333110D01*
X44336915Y-56374591D01*
X44326607Y-56408569D01*
X44309866Y-56439890D01*
X44287339Y-56467339D01*
X44259890Y-56489866D01*
X44228569Y-56506607D01*
X44194591Y-56516915D01*
X44153110Y-56521000D01*
X43476890Y-56521000D01*
X43435409Y-56516915D01*
X43401431Y-56506607D01*
X43370110Y-56489866D01*
X43342661Y-56467339D01*
X43320134Y-56439890D01*
X43303393Y-56408569D01*
X43293085Y-56374591D01*
X43289000Y-56333110D01*
X43289000Y-55731890D01*
X43293085Y-55690409D01*
X43303393Y-55656431D01*
X43320134Y-55625110D01*
X43342661Y-55597661D01*
X43370110Y-55575134D01*
X43401431Y-55558393D01*
X43435409Y-55548085D01*
X43476890Y-55544000D01*
X44153110Y-55544000D01*
X44194591Y-55548085D01*
G37*
G36*
X46734591Y-53973085D02*
G01*
X46768569Y-53983393D01*
X46799890Y-54000134D01*
X46827339Y-54022661D01*
X46849866Y-54050110D01*
X46866607Y-54081431D01*
X46876915Y-54115409D01*
X46881000Y-54156890D01*
X46881000Y-54758110D01*
X46876915Y-54799591D01*
X46866607Y-54833569D01*
X46849866Y-54864890D01*
X46827339Y-54892339D01*
X46799890Y-54914866D01*
X46768569Y-54931607D01*
X46734591Y-54941915D01*
X46693110Y-54946000D01*
X46016890Y-54946000D01*
X45975409Y-54941915D01*
X45941431Y-54931607D01*
X45910110Y-54914866D01*
X45882661Y-54892339D01*
X45860134Y-54864890D01*
X45843393Y-54833569D01*
X45833085Y-54799591D01*
X45829000Y-54758110D01*
X45829000Y-54156890D01*
X45833085Y-54115409D01*
X45843393Y-54081431D01*
X45860134Y-54050110D01*
X45882661Y-54022661D01*
X45910110Y-54000134D01*
X45941431Y-53983393D01*
X45975409Y-53973085D01*
X46016890Y-53969000D01*
X46693110Y-53969000D01*
X46734591Y-53973085D01*
G37*
G36*
X44194591Y-53973085D02*
G01*
X44228569Y-53983393D01*
X44259890Y-54000134D01*
X44287339Y-54022661D01*
X44309866Y-54050110D01*
X44326607Y-54081431D01*
X44336915Y-54115409D01*
X44341000Y-54156890D01*
X44341000Y-54758110D01*
X44336915Y-54799591D01*
X44326607Y-54833569D01*
X44309866Y-54864890D01*
X44287339Y-54892339D01*
X44259890Y-54914866D01*
X44228569Y-54931607D01*
X44194591Y-54941915D01*
X44153110Y-54946000D01*
X43476890Y-54946000D01*
X43435409Y-54941915D01*
X43401431Y-54931607D01*
X43370110Y-54914866D01*
X43342661Y-54892339D01*
X43320134Y-54864890D01*
X43303393Y-54833569D01*
X43293085Y-54799591D01*
X43289000Y-54758110D01*
X43289000Y-54156890D01*
X43293085Y-54115409D01*
X43303393Y-54081431D01*
X43320134Y-54050110D01*
X43342661Y-54022661D01*
X43370110Y-54000134D01*
X43401431Y-53983393D01*
X43435409Y-53973085D01*
X43476890Y-53969000D01*
X44153110Y-53969000D01*
X44194591Y-53973085D01*
G37*
G36*
X46734591Y-52373085D02*
G01*
X46768569Y-52383393D01*
X46799890Y-52400134D01*
X46827339Y-52422661D01*
X46849866Y-52450110D01*
X46866607Y-52481431D01*
X46876915Y-52515409D01*
X46881000Y-52556890D01*
X46881000Y-53158110D01*
X46876915Y-53199591D01*
X46866607Y-53233569D01*
X46849866Y-53264890D01*
X46827339Y-53292339D01*
X46799890Y-53314866D01*
X46768569Y-53331607D01*
X46734591Y-53341915D01*
X46693110Y-53346000D01*
X46016890Y-53346000D01*
X45975409Y-53341915D01*
X45941431Y-53331607D01*
X45910110Y-53314866D01*
X45882661Y-53292339D01*
X45860134Y-53264890D01*
X45843393Y-53233569D01*
X45833085Y-53199591D01*
X45829000Y-53158110D01*
X45829000Y-52556890D01*
X45833085Y-52515409D01*
X45843393Y-52481431D01*
X45860134Y-52450110D01*
X45882661Y-52422661D01*
X45910110Y-52400134D01*
X45941431Y-52383393D01*
X45975409Y-52373085D01*
X46016890Y-52369000D01*
X46693110Y-52369000D01*
X46734591Y-52373085D01*
G37*
G36*
X44194591Y-52373085D02*
G01*
X44228569Y-52383393D01*
X44259890Y-52400134D01*
X44287339Y-52422661D01*
X44309866Y-52450110D01*
X44326607Y-52481431D01*
X44336915Y-52515409D01*
X44341000Y-52556890D01*
X44341000Y-53158110D01*
X44336915Y-53199591D01*
X44326607Y-53233569D01*
X44309866Y-53264890D01*
X44287339Y-53292339D01*
X44259890Y-53314866D01*
X44228569Y-53331607D01*
X44194591Y-53341915D01*
X44153110Y-53346000D01*
X43476890Y-53346000D01*
X43435409Y-53341915D01*
X43401431Y-53331607D01*
X43370110Y-53314866D01*
X43342661Y-53292339D01*
X43320134Y-53264890D01*
X43303393Y-53233569D01*
X43293085Y-53199591D01*
X43289000Y-53158110D01*
X43289000Y-52556890D01*
X43293085Y-52515409D01*
X43303393Y-52481431D01*
X43320134Y-52450110D01*
X43342661Y-52422661D01*
X43370110Y-52400134D01*
X43401431Y-52383393D01*
X43435409Y-52373085D01*
X43476890Y-52369000D01*
X44153110Y-52369000D01*
X44194591Y-52373085D01*
G37*
G36*
X46734591Y-50798085D02*
G01*
X46768569Y-50808393D01*
X46799890Y-50825134D01*
X46827339Y-50847661D01*
X46849866Y-50875110D01*
X46866607Y-50906431D01*
X46876915Y-50940409D01*
X46881000Y-50981890D01*
X46881000Y-51583110D01*
X46876915Y-51624591D01*
X46866607Y-51658569D01*
X46849866Y-51689890D01*
X46827339Y-51717339D01*
X46799890Y-51739866D01*
X46768569Y-51756607D01*
X46734591Y-51766915D01*
X46693110Y-51771000D01*
X46016890Y-51771000D01*
X45975409Y-51766915D01*
X45941431Y-51756607D01*
X45910110Y-51739866D01*
X45882661Y-51717339D01*
X45860134Y-51689890D01*
X45843393Y-51658569D01*
X45833085Y-51624591D01*
X45829000Y-51583110D01*
X45829000Y-50981890D01*
X45833085Y-50940409D01*
X45843393Y-50906431D01*
X45860134Y-50875110D01*
X45882661Y-50847661D01*
X45910110Y-50825134D01*
X45941431Y-50808393D01*
X45975409Y-50798085D01*
X46016890Y-50794000D01*
X46693110Y-50794000D01*
X46734591Y-50798085D01*
G37*
G36*
X44194591Y-50798085D02*
G01*
X44228569Y-50808393D01*
X44259890Y-50825134D01*
X44287339Y-50847661D01*
X44309866Y-50875110D01*
X44326607Y-50906431D01*
X44336915Y-50940409D01*
X44341000Y-50981890D01*
X44341000Y-51583110D01*
X44336915Y-51624591D01*
X44326607Y-51658569D01*
X44309866Y-51689890D01*
X44287339Y-51717339D01*
X44259890Y-51739866D01*
X44228569Y-51756607D01*
X44194591Y-51766915D01*
X44153110Y-51771000D01*
X43476890Y-51771000D01*
X43435409Y-51766915D01*
X43401431Y-51756607D01*
X43370110Y-51739866D01*
X43342661Y-51717339D01*
X43320134Y-51689890D01*
X43303393Y-51658569D01*
X43293085Y-51624591D01*
X43289000Y-51583110D01*
X43289000Y-50981890D01*
X43293085Y-50940409D01*
X43303393Y-50906431D01*
X43320134Y-50875110D01*
X43342661Y-50847661D01*
X43370110Y-50825134D01*
X43401431Y-50808393D01*
X43435409Y-50798085D01*
X43476890Y-50794000D01*
X44153110Y-50794000D01*
X44194591Y-50798085D01*
G37*
G36*
X64922938Y-48653716D02*
G01*
X64943557Y-48659971D01*
X64962553Y-48670124D01*
X64979208Y-48683792D01*
X64992876Y-48700447D01*
X65003029Y-48719443D01*
X65009284Y-48740062D01*
X65012000Y-48767640D01*
X65012000Y-49276360D01*
X65009284Y-49303938D01*
X65003029Y-49324557D01*
X64992876Y-49343553D01*
X64979208Y-49360208D01*
X64962553Y-49373876D01*
X64943557Y-49384029D01*
X64922938Y-49390284D01*
X64895360Y-49393000D01*
X64436640Y-49393000D01*
X64409062Y-49390284D01*
X64388443Y-49384029D01*
X64369447Y-49373876D01*
X64352792Y-49360208D01*
X64339124Y-49343553D01*
X64328971Y-49324557D01*
X64322716Y-49303938D01*
X64320000Y-49276360D01*
X64320000Y-48767640D01*
X64322716Y-48740062D01*
X64328971Y-48719443D01*
X64339124Y-48700447D01*
X64352792Y-48683792D01*
X64369447Y-48670124D01*
X64388443Y-48659971D01*
X64409062Y-48653716D01*
X64436640Y-48651000D01*
X64895360Y-48651000D01*
X64922938Y-48653716D01*
G37*
G36*
X65892938Y-48653716D02*
G01*
X65913557Y-48659971D01*
X65932553Y-48670124D01*
X65949208Y-48683792D01*
X65962876Y-48700447D01*
X65973029Y-48719443D01*
X65979284Y-48740062D01*
X65982000Y-48767640D01*
X65982000Y-49276360D01*
X65979284Y-49303938D01*
X65973029Y-49324557D01*
X65962876Y-49343553D01*
X65949208Y-49360208D01*
X65932553Y-49373876D01*
X65913557Y-49384029D01*
X65892938Y-49390284D01*
X65865360Y-49393000D01*
X65406640Y-49393000D01*
X65379062Y-49390284D01*
X65358443Y-49384029D01*
X65339447Y-49373876D01*
X65322792Y-49360208D01*
X65309124Y-49343553D01*
X65298971Y-49324557D01*
X65292716Y-49303938D01*
X65290000Y-49276360D01*
X65290000Y-48767640D01*
X65292716Y-48740062D01*
X65298971Y-48719443D01*
X65309124Y-48700447D01*
X65322792Y-48683792D01*
X65339447Y-48670124D01*
X65358443Y-48659971D01*
X65379062Y-48653716D01*
X65406640Y-48651000D01*
X65865360Y-48651000D01*
X65892938Y-48653716D01*
G37*
G36*
X69067938Y-48653716D02*
G01*
X69088557Y-48659971D01*
X69107553Y-48670124D01*
X69124208Y-48683792D01*
X69137876Y-48700447D01*
X69148029Y-48719443D01*
X69154284Y-48740062D01*
X69157000Y-48767640D01*
X69157000Y-49276360D01*
X69154284Y-49303938D01*
X69148029Y-49324557D01*
X69137876Y-49343553D01*
X69124208Y-49360208D01*
X69107553Y-49373876D01*
X69088557Y-49384029D01*
X69067938Y-49390284D01*
X69040360Y-49393000D01*
X68581640Y-49393000D01*
X68554062Y-49390284D01*
X68533443Y-49384029D01*
X68514447Y-49373876D01*
X68497792Y-49360208D01*
X68484124Y-49343553D01*
X68473971Y-49324557D01*
X68467716Y-49303938D01*
X68465000Y-49276360D01*
X68465000Y-48767640D01*
X68467716Y-48740062D01*
X68473971Y-48719443D01*
X68484124Y-48700447D01*
X68497792Y-48683792D01*
X68514447Y-48670124D01*
X68533443Y-48659971D01*
X68554062Y-48653716D01*
X68581640Y-48651000D01*
X69040360Y-48651000D01*
X69067938Y-48653716D01*
G37*
G36*
X68097938Y-48653716D02*
G01*
X68118557Y-48659971D01*
X68137553Y-48670124D01*
X68154208Y-48683792D01*
X68167876Y-48700447D01*
X68178029Y-48719443D01*
X68184284Y-48740062D01*
X68187000Y-48767640D01*
X68187000Y-49276360D01*
X68184284Y-49303938D01*
X68178029Y-49324557D01*
X68167876Y-49343553D01*
X68154208Y-49360208D01*
X68137553Y-49373876D01*
X68118557Y-49384029D01*
X68097938Y-49390284D01*
X68070360Y-49393000D01*
X67611640Y-49393000D01*
X67584062Y-49390284D01*
X67563443Y-49384029D01*
X67544447Y-49373876D01*
X67527792Y-49360208D01*
X67514124Y-49343553D01*
X67503971Y-49324557D01*
X67497716Y-49303938D01*
X67495000Y-49276360D01*
X67495000Y-48767640D01*
X67497716Y-48740062D01*
X67503971Y-48719443D01*
X67514124Y-48700447D01*
X67527792Y-48683792D01*
X67544447Y-48670124D01*
X67563443Y-48659971D01*
X67584062Y-48653716D01*
X67611640Y-48651000D01*
X68070360Y-48651000D01*
X68097938Y-48653716D01*
G37*
G36*
X86578000Y-48984000D02*
G01*
X85126000Y-48984000D01*
X85126000Y-47532000D01*
X86578000Y-47532000D01*
X86578000Y-48984000D01*
G37*
G36*
X69957000Y-47098000D02*
G01*
X67855000Y-47098000D01*
X67855000Y-44596000D01*
X69957000Y-44596000D01*
X69957000Y-47098000D01*
G37*
G36*
X66257000Y-47098000D02*
G01*
X64155000Y-47098000D01*
X64155000Y-44596000D01*
X66257000Y-44596000D01*
X66257000Y-47098000D01*
G37*
G36*
X86063766Y-45559899D02*
G01*
X86195888Y-45614626D01*
X86195890Y-45614627D01*
X86314798Y-45694079D01*
X86415921Y-45795202D01*
X86415922Y-45795204D01*
X86495374Y-45914112D01*
X86550101Y-46046234D01*
X86578000Y-46186494D01*
X86578000Y-46329506D01*
X86550101Y-46469766D01*
X86495374Y-46601888D01*
X86495373Y-46601890D01*
X86415921Y-46720798D01*
X86314798Y-46821921D01*
X86195890Y-46901373D01*
X86195889Y-46901374D01*
X86195888Y-46901374D01*
X86063766Y-46956101D01*
X85923506Y-46984000D01*
X85780494Y-46984000D01*
X85640234Y-46956101D01*
X85508112Y-46901374D01*
X85508111Y-46901374D01*
X85508110Y-46901373D01*
X85389202Y-46821921D01*
X85288079Y-46720798D01*
X85208627Y-46601890D01*
X85208626Y-46601888D01*
X85153899Y-46469766D01*
X85126000Y-46329506D01*
X85126000Y-46186494D01*
X85153899Y-46046234D01*
X85208626Y-45914112D01*
X85288078Y-45795204D01*
X85288079Y-45795202D01*
X85389202Y-45694079D01*
X85508110Y-45614627D01*
X85508112Y-45614626D01*
X85640234Y-45559899D01*
X85780494Y-45532000D01*
X85923506Y-45532000D01*
X86063766Y-45559899D01*
G37*
G36*
X86063766Y-43559899D02*
G01*
X86195888Y-43614626D01*
X86195890Y-43614627D01*
X86314798Y-43694079D01*
X86415921Y-43795202D01*
X86452703Y-43850250D01*
X86495374Y-43914112D01*
X86550101Y-44046234D01*
X86578000Y-44186494D01*
X86578000Y-44329506D01*
X86550101Y-44469766D01*
X86497813Y-44596000D01*
X86495373Y-44601890D01*
X86415921Y-44720798D01*
X86314798Y-44821921D01*
X86195890Y-44901373D01*
X86195889Y-44901374D01*
X86195888Y-44901374D01*
X86063766Y-44956101D01*
X85923506Y-44984000D01*
X85780494Y-44984000D01*
X85640234Y-44956101D01*
X85508112Y-44901374D01*
X85508111Y-44901374D01*
X85508110Y-44901373D01*
X85389202Y-44821921D01*
X85288079Y-44720798D01*
X85208627Y-44601890D01*
X85206187Y-44596000D01*
X85153899Y-44469766D01*
X85126000Y-44329506D01*
X85126000Y-44186494D01*
X85153899Y-44046234D01*
X85208626Y-43914112D01*
X85251297Y-43850250D01*
X85288079Y-43795202D01*
X85389202Y-43694079D01*
X85508110Y-43614627D01*
X85508112Y-43614626D01*
X85640234Y-43559899D01*
X85780494Y-43532000D01*
X85923506Y-43532000D01*
X86063766Y-43559899D01*
G37*
G36*
X73150591Y-43610085D02*
G01*
X73184569Y-43620393D01*
X73215890Y-43637134D01*
X73243339Y-43659661D01*
X73265866Y-43687110D01*
X73282607Y-43718431D01*
X73292915Y-43752409D01*
X73297000Y-43793890D01*
X73297000Y-44395110D01*
X73292915Y-44436591D01*
X73282607Y-44470569D01*
X73265866Y-44501890D01*
X73243339Y-44529339D01*
X73215890Y-44551866D01*
X73184569Y-44568607D01*
X73150591Y-44578915D01*
X73109110Y-44583000D01*
X72432890Y-44583000D01*
X72391409Y-44578915D01*
X72357431Y-44568607D01*
X72326110Y-44551866D01*
X72298661Y-44529339D01*
X72276134Y-44501890D01*
X72259393Y-44470569D01*
X72249085Y-44436591D01*
X72245000Y-44395110D01*
X72245000Y-43793890D01*
X72249085Y-43752409D01*
X72259393Y-43718431D01*
X72276134Y-43687110D01*
X72298661Y-43659661D01*
X72326110Y-43637134D01*
X72357431Y-43620393D01*
X72391409Y-43610085D01*
X72432890Y-43606000D01*
X73109110Y-43606000D01*
X73150591Y-43610085D01*
G37*
G36*
X64287938Y-42303716D02*
G01*
X64308557Y-42309971D01*
X64327553Y-42320124D01*
X64344208Y-42333792D01*
X64357876Y-42350447D01*
X64368029Y-42369443D01*
X64374284Y-42390062D01*
X64377000Y-42417640D01*
X64377000Y-42926360D01*
X64374284Y-42953938D01*
X64368029Y-42974557D01*
X64357876Y-42993553D01*
X64344208Y-43010208D01*
X64327553Y-43023876D01*
X64308557Y-43034029D01*
X64287938Y-43040284D01*
X64260360Y-43043000D01*
X63801640Y-43043000D01*
X63774062Y-43040284D01*
X63753443Y-43034029D01*
X63734447Y-43023876D01*
X63717792Y-43010208D01*
X63704124Y-42993553D01*
X63693971Y-42974557D01*
X63687716Y-42953938D01*
X63685000Y-42926360D01*
X63685000Y-42417640D01*
X63687716Y-42390062D01*
X63693971Y-42369443D01*
X63704124Y-42350447D01*
X63717792Y-42333792D01*
X63734447Y-42320124D01*
X63753443Y-42309971D01*
X63774062Y-42303716D01*
X63801640Y-42301000D01*
X64260360Y-42301000D01*
X64287938Y-42303716D01*
G37*
G36*
X65257938Y-42303716D02*
G01*
X65278557Y-42309971D01*
X65297553Y-42320124D01*
X65314208Y-42333792D01*
X65327876Y-42350447D01*
X65338029Y-42369443D01*
X65344284Y-42390062D01*
X65347000Y-42417640D01*
X65347000Y-42926360D01*
X65344284Y-42953938D01*
X65338029Y-42974557D01*
X65327876Y-42993553D01*
X65314208Y-43010208D01*
X65297553Y-43023876D01*
X65278557Y-43034029D01*
X65257938Y-43040284D01*
X65230360Y-43043000D01*
X64771640Y-43043000D01*
X64744062Y-43040284D01*
X64723443Y-43034029D01*
X64704447Y-43023876D01*
X64687792Y-43010208D01*
X64674124Y-42993553D01*
X64663971Y-42974557D01*
X64657716Y-42953938D01*
X64655000Y-42926360D01*
X64655000Y-42417640D01*
X64657716Y-42390062D01*
X64663971Y-42369443D01*
X64674124Y-42350447D01*
X64687792Y-42333792D01*
X64704447Y-42320124D01*
X64723443Y-42309971D01*
X64744062Y-42303716D01*
X64771640Y-42301000D01*
X65230360Y-42301000D01*
X65257938Y-42303716D01*
G37*
G36*
X68097938Y-42303716D02*
G01*
X68118557Y-42309971D01*
X68137553Y-42320124D01*
X68154208Y-42333792D01*
X68167876Y-42350447D01*
X68178029Y-42369443D01*
X68184284Y-42390062D01*
X68187000Y-42417640D01*
X68187000Y-42926360D01*
X68184284Y-42953938D01*
X68178029Y-42974557D01*
X68167876Y-42993553D01*
X68154208Y-43010208D01*
X68137553Y-43023876D01*
X68118557Y-43034029D01*
X68097938Y-43040284D01*
X68070360Y-43043000D01*
X67611640Y-43043000D01*
X67584062Y-43040284D01*
X67563443Y-43034029D01*
X67544447Y-43023876D01*
X67527792Y-43010208D01*
X67514124Y-42993553D01*
X67503971Y-42974557D01*
X67497716Y-42953938D01*
X67495000Y-42926360D01*
X67495000Y-42417640D01*
X67497716Y-42390062D01*
X67503971Y-42369443D01*
X67514124Y-42350447D01*
X67527792Y-42333792D01*
X67544447Y-42320124D01*
X67563443Y-42309971D01*
X67584062Y-42303716D01*
X67611640Y-42301000D01*
X68070360Y-42301000D01*
X68097938Y-42303716D01*
G37*
G36*
X69067938Y-42303716D02*
G01*
X69088557Y-42309971D01*
X69107553Y-42320124D01*
X69124208Y-42333792D01*
X69137876Y-42350447D01*
X69148029Y-42369443D01*
X69154284Y-42390062D01*
X69157000Y-42417640D01*
X69157000Y-42926360D01*
X69154284Y-42953938D01*
X69148029Y-42974557D01*
X69137876Y-42993553D01*
X69124208Y-43010208D01*
X69107553Y-43023876D01*
X69088557Y-43034029D01*
X69067938Y-43040284D01*
X69040360Y-43043000D01*
X68581640Y-43043000D01*
X68554062Y-43040284D01*
X68533443Y-43034029D01*
X68514447Y-43023876D01*
X68497792Y-43010208D01*
X68484124Y-42993553D01*
X68473971Y-42974557D01*
X68467716Y-42953938D01*
X68465000Y-42926360D01*
X68465000Y-42417640D01*
X68467716Y-42390062D01*
X68473971Y-42369443D01*
X68484124Y-42350447D01*
X68497792Y-42333792D01*
X68514447Y-42320124D01*
X68533443Y-42309971D01*
X68554062Y-42303716D01*
X68581640Y-42301000D01*
X69040360Y-42301000D01*
X69067938Y-42303716D01*
G37*
G36*
X73150591Y-42035085D02*
G01*
X73184569Y-42045393D01*
X73215890Y-42062134D01*
X73243339Y-42084661D01*
X73265866Y-42112110D01*
X73282607Y-42143431D01*
X73292915Y-42177409D01*
X73297000Y-42218890D01*
X73297000Y-42820110D01*
X73292915Y-42861591D01*
X73282607Y-42895569D01*
X73265866Y-42926890D01*
X73243339Y-42954339D01*
X73215890Y-42976866D01*
X73184569Y-42993607D01*
X73150591Y-43003915D01*
X73109110Y-43008000D01*
X72432890Y-43008000D01*
X72391409Y-43003915D01*
X72357431Y-42993607D01*
X72326110Y-42976866D01*
X72298661Y-42954339D01*
X72276134Y-42926890D01*
X72259393Y-42895569D01*
X72249085Y-42861591D01*
X72245000Y-42820110D01*
X72245000Y-42218890D01*
X72249085Y-42177409D01*
X72259393Y-42143431D01*
X72276134Y-42112110D01*
X72298661Y-42084661D01*
X72326110Y-42062134D01*
X72357431Y-42045393D01*
X72391409Y-42035085D01*
X72432890Y-42031000D01*
X73109110Y-42031000D01*
X73150591Y-42035085D01*
G37*
G36*
X86063766Y-41559899D02*
G01*
X86195888Y-41614626D01*
X86195890Y-41614627D01*
X86314798Y-41694079D01*
X86415921Y-41795202D01*
X86490000Y-41906069D01*
X86495374Y-41914112D01*
X86550101Y-42046234D01*
X86578000Y-42186494D01*
X86578000Y-42329506D01*
X86550101Y-42469766D01*
X86495374Y-42601888D01*
X86495373Y-42601890D01*
X86415921Y-42720798D01*
X86314798Y-42821921D01*
X86195890Y-42901373D01*
X86195889Y-42901374D01*
X86195888Y-42901374D01*
X86063766Y-42956101D01*
X85923506Y-42984000D01*
X85780494Y-42984000D01*
X85640234Y-42956101D01*
X85508112Y-42901374D01*
X85508111Y-42901374D01*
X85508110Y-42901373D01*
X85389202Y-42821921D01*
X85288079Y-42720798D01*
X85208627Y-42601890D01*
X85208626Y-42601888D01*
X85153899Y-42469766D01*
X85126000Y-42329506D01*
X85126000Y-42186494D01*
X85153899Y-42046234D01*
X85208626Y-41914112D01*
X85214000Y-41906069D01*
X85288079Y-41795202D01*
X85389202Y-41694079D01*
X85508110Y-41614627D01*
X85508112Y-41614626D01*
X85640234Y-41559899D01*
X85780494Y-41532000D01*
X85923506Y-41532000D01*
X86063766Y-41559899D01*
G37*
G36*
X62892938Y-42178716D02*
G01*
X62913557Y-42184971D01*
X62932553Y-42195124D01*
X62949208Y-42208792D01*
X62962876Y-42225447D01*
X62973029Y-42244443D01*
X62979284Y-42265062D01*
X62982000Y-42292640D01*
X62982000Y-42751360D01*
X62979284Y-42778938D01*
X62973029Y-42799557D01*
X62962876Y-42818553D01*
X62949208Y-42835208D01*
X62932553Y-42848876D01*
X62913557Y-42859029D01*
X62892938Y-42865284D01*
X62865360Y-42868000D01*
X62356640Y-42868000D01*
X62329062Y-42865284D01*
X62308443Y-42859029D01*
X62289447Y-42848876D01*
X62272792Y-42835208D01*
X62259124Y-42818553D01*
X62248971Y-42799557D01*
X62242716Y-42778938D01*
X62240000Y-42751360D01*
X62240000Y-42292640D01*
X62242716Y-42265062D01*
X62248971Y-42244443D01*
X62259124Y-42225447D01*
X62272792Y-42208792D01*
X62289447Y-42195124D01*
X62308443Y-42184971D01*
X62329062Y-42178716D01*
X62356640Y-42176000D01*
X62865360Y-42176000D01*
X62892938Y-42178716D01*
G37*
G36*
X64476295Y-40332323D02*
G01*
X64483309Y-40334451D01*
X64497077Y-40341810D01*
X64519716Y-40351187D01*
X64543749Y-40355967D01*
X64568253Y-40355967D01*
X64592286Y-40351186D01*
X64614923Y-40341810D01*
X64628691Y-40334451D01*
X64635705Y-40332323D01*
X64649140Y-40331000D01*
X64962860Y-40331000D01*
X64976295Y-40332323D01*
X64983309Y-40334451D01*
X64997077Y-40341810D01*
X65019716Y-40351187D01*
X65043749Y-40355967D01*
X65068253Y-40355967D01*
X65092286Y-40351186D01*
X65114923Y-40341810D01*
X65128691Y-40334451D01*
X65135705Y-40332323D01*
X65149140Y-40331000D01*
X65462860Y-40331000D01*
X65476295Y-40332323D01*
X65483309Y-40334451D01*
X65497077Y-40341810D01*
X65519716Y-40351187D01*
X65543749Y-40355967D01*
X65568253Y-40355967D01*
X65592286Y-40351186D01*
X65614923Y-40341810D01*
X65628691Y-40334451D01*
X65635705Y-40332323D01*
X65649140Y-40331000D01*
X65962860Y-40331000D01*
X65976295Y-40332323D01*
X65983309Y-40334451D01*
X65997077Y-40341810D01*
X66019716Y-40351187D01*
X66043749Y-40355967D01*
X66068253Y-40355967D01*
X66092286Y-40351186D01*
X66114923Y-40341810D01*
X66128691Y-40334451D01*
X66135705Y-40332323D01*
X66149140Y-40331000D01*
X66462860Y-40331000D01*
X66476295Y-40332323D01*
X66483309Y-40334451D01*
X66497077Y-40341810D01*
X66519716Y-40351187D01*
X66543749Y-40355967D01*
X66568253Y-40355967D01*
X66592286Y-40351186D01*
X66614923Y-40341810D01*
X66628691Y-40334451D01*
X66635705Y-40332323D01*
X66649140Y-40331000D01*
X66962860Y-40331000D01*
X66976295Y-40332323D01*
X66983309Y-40334451D01*
X66997077Y-40341810D01*
X67019716Y-40351187D01*
X67043749Y-40355967D01*
X67068253Y-40355967D01*
X67092286Y-40351186D01*
X67114923Y-40341810D01*
X67128691Y-40334451D01*
X67135705Y-40332323D01*
X67149140Y-40331000D01*
X67462860Y-40331000D01*
X67476295Y-40332323D01*
X67483309Y-40334451D01*
X67497077Y-40341810D01*
X67519716Y-40351187D01*
X67543749Y-40355967D01*
X67568253Y-40355967D01*
X67592286Y-40351186D01*
X67614923Y-40341810D01*
X67628691Y-40334451D01*
X67635705Y-40332323D01*
X67649140Y-40331000D01*
X67962860Y-40331000D01*
X67976295Y-40332323D01*
X67983309Y-40334451D01*
X67997077Y-40341810D01*
X68019716Y-40351187D01*
X68043749Y-40355967D01*
X68068253Y-40355967D01*
X68092286Y-40351186D01*
X68114923Y-40341810D01*
X68128691Y-40334451D01*
X68135705Y-40332323D01*
X68149140Y-40331000D01*
X68462860Y-40331000D01*
X68476295Y-40332323D01*
X68483309Y-40334451D01*
X68497077Y-40341810D01*
X68519716Y-40351187D01*
X68543749Y-40355967D01*
X68568253Y-40355967D01*
X68592286Y-40351186D01*
X68614923Y-40341810D01*
X68628691Y-40334451D01*
X68635705Y-40332323D01*
X68649140Y-40331000D01*
X68962860Y-40331000D01*
X68976295Y-40332323D01*
X68983309Y-40334451D01*
X68997077Y-40341810D01*
X69019716Y-40351187D01*
X69043749Y-40355967D01*
X69068253Y-40355967D01*
X69092286Y-40351186D01*
X69114923Y-40341810D01*
X69128691Y-40334451D01*
X69135705Y-40332323D01*
X69149140Y-40331000D01*
X69462860Y-40331000D01*
X69476295Y-40332323D01*
X69483309Y-40334451D01*
X69497077Y-40341810D01*
X69519716Y-40351187D01*
X69543749Y-40355967D01*
X69568253Y-40355967D01*
X69592286Y-40351186D01*
X69614923Y-40341810D01*
X69628691Y-40334451D01*
X69635705Y-40332323D01*
X69649140Y-40331000D01*
X69962860Y-40331000D01*
X69976295Y-40332323D01*
X69983310Y-40334451D01*
X69989776Y-40337908D01*
X69995442Y-40342558D01*
X70000092Y-40348224D01*
X70003549Y-40354690D01*
X70005677Y-40361705D01*
X70007000Y-40375140D01*
X70007000Y-41863860D01*
X70005677Y-41877295D01*
X70003549Y-41884310D01*
X70000092Y-41890776D01*
X69995442Y-41896442D01*
X69989776Y-41901092D01*
X69983310Y-41904549D01*
X69976295Y-41906677D01*
X69962860Y-41908000D01*
X69649140Y-41908000D01*
X69635705Y-41906677D01*
X69628691Y-41904549D01*
X69614923Y-41897190D01*
X69592284Y-41887813D01*
X69568251Y-41883033D01*
X69543747Y-41883033D01*
X69519714Y-41887814D01*
X69497077Y-41897190D01*
X69483309Y-41904549D01*
X69476295Y-41906677D01*
X69462860Y-41908000D01*
X69149140Y-41908000D01*
X69135705Y-41906677D01*
X69128691Y-41904549D01*
X69114923Y-41897190D01*
X69092284Y-41887813D01*
X69068251Y-41883033D01*
X69043747Y-41883033D01*
X69019714Y-41887814D01*
X68997077Y-41897190D01*
X68983309Y-41904549D01*
X68976295Y-41906677D01*
X68962860Y-41908000D01*
X68649140Y-41908000D01*
X68635705Y-41906677D01*
X68628691Y-41904549D01*
X68614923Y-41897190D01*
X68592284Y-41887813D01*
X68568251Y-41883033D01*
X68543747Y-41883033D01*
X68519714Y-41887814D01*
X68497077Y-41897190D01*
X68483309Y-41904549D01*
X68476295Y-41906677D01*
X68462860Y-41908000D01*
X68149140Y-41908000D01*
X68135705Y-41906677D01*
X68128691Y-41904549D01*
X68114923Y-41897190D01*
X68092284Y-41887813D01*
X68068251Y-41883033D01*
X68043747Y-41883033D01*
X68019714Y-41887814D01*
X67997077Y-41897190D01*
X67983309Y-41904549D01*
X67976295Y-41906677D01*
X67962860Y-41908000D01*
X67649140Y-41908000D01*
X67635705Y-41906677D01*
X67628691Y-41904549D01*
X67614923Y-41897190D01*
X67592284Y-41887813D01*
X67568251Y-41883033D01*
X67543747Y-41883033D01*
X67519714Y-41887814D01*
X67497077Y-41897190D01*
X67483309Y-41904549D01*
X67476295Y-41906677D01*
X67462860Y-41908000D01*
X67149140Y-41908000D01*
X67135705Y-41906677D01*
X67128691Y-41904549D01*
X67114923Y-41897190D01*
X67092284Y-41887813D01*
X67068251Y-41883033D01*
X67043747Y-41883033D01*
X67019714Y-41887814D01*
X66997077Y-41897190D01*
X66983309Y-41904549D01*
X66976295Y-41906677D01*
X66962860Y-41908000D01*
X66649140Y-41908000D01*
X66635705Y-41906677D01*
X66628691Y-41904549D01*
X66614923Y-41897190D01*
X66592284Y-41887813D01*
X66568251Y-41883033D01*
X66543747Y-41883033D01*
X66519714Y-41887814D01*
X66497077Y-41897190D01*
X66483309Y-41904549D01*
X66476295Y-41906677D01*
X66462860Y-41908000D01*
X66149140Y-41908000D01*
X66135705Y-41906677D01*
X66128691Y-41904549D01*
X66114923Y-41897190D01*
X66092284Y-41887813D01*
X66068251Y-41883033D01*
X66043747Y-41883033D01*
X66019714Y-41887814D01*
X65997077Y-41897190D01*
X65983309Y-41904549D01*
X65976295Y-41906677D01*
X65962860Y-41908000D01*
X65649140Y-41908000D01*
X65635705Y-41906677D01*
X65628691Y-41904549D01*
X65614923Y-41897190D01*
X65592284Y-41887813D01*
X65568251Y-41883033D01*
X65543747Y-41883033D01*
X65519714Y-41887814D01*
X65497077Y-41897190D01*
X65483309Y-41904549D01*
X65476295Y-41906677D01*
X65462860Y-41908000D01*
X65149140Y-41908000D01*
X65135705Y-41906677D01*
X65128691Y-41904549D01*
X65114923Y-41897190D01*
X65092284Y-41887813D01*
X65068251Y-41883033D01*
X65043747Y-41883033D01*
X65019714Y-41887814D01*
X64997077Y-41897190D01*
X64983309Y-41904549D01*
X64976295Y-41906677D01*
X64962860Y-41908000D01*
X64649140Y-41908000D01*
X64635705Y-41906677D01*
X64628691Y-41904549D01*
X64614923Y-41897190D01*
X64592284Y-41887813D01*
X64568251Y-41883033D01*
X64543747Y-41883033D01*
X64519714Y-41887814D01*
X64497077Y-41897190D01*
X64483309Y-41904549D01*
X64476295Y-41906677D01*
X64462860Y-41908000D01*
X64149140Y-41908000D01*
X64135705Y-41906677D01*
X64128690Y-41904549D01*
X64122224Y-41901092D01*
X64116558Y-41896442D01*
X64111908Y-41890776D01*
X64108451Y-41884310D01*
X64106323Y-41877295D01*
X64105000Y-41863860D01*
X64105000Y-40375140D01*
X64106323Y-40361705D01*
X64108451Y-40354690D01*
X64111908Y-40348224D01*
X64116558Y-40342558D01*
X64122224Y-40337908D01*
X64128690Y-40334451D01*
X64135705Y-40332323D01*
X64149140Y-40331000D01*
X64462860Y-40331000D01*
X64476295Y-40332323D01*
G37*
G36*
X62892938Y-41208716D02*
G01*
X62913557Y-41214971D01*
X62932553Y-41225124D01*
X62949208Y-41238792D01*
X62962876Y-41255447D01*
X62973029Y-41274443D01*
X62979284Y-41295062D01*
X62982000Y-41322640D01*
X62982000Y-41781360D01*
X62979284Y-41808938D01*
X62973029Y-41829557D01*
X62962876Y-41848553D01*
X62949208Y-41865208D01*
X62932553Y-41878876D01*
X62913557Y-41889029D01*
X62892938Y-41895284D01*
X62865360Y-41898000D01*
X62356640Y-41898000D01*
X62329062Y-41895284D01*
X62308443Y-41889029D01*
X62289447Y-41878876D01*
X62272792Y-41865208D01*
X62259124Y-41848553D01*
X62248971Y-41829557D01*
X62242716Y-41808938D01*
X62240000Y-41781360D01*
X62240000Y-41322640D01*
X62242716Y-41295062D01*
X62248971Y-41274443D01*
X62259124Y-41255447D01*
X62272792Y-41238792D01*
X62289447Y-41225124D01*
X62308443Y-41214971D01*
X62329062Y-41208716D01*
X62356640Y-41206000D01*
X62865360Y-41206000D01*
X62892938Y-41208716D01*
G37*
G36*
X86063766Y-39559899D02*
G01*
X86195888Y-39614626D01*
X86195890Y-39614627D01*
X86314798Y-39694079D01*
X86415921Y-39795202D01*
X86490000Y-39906069D01*
X86495374Y-39914112D01*
X86550101Y-40046234D01*
X86578000Y-40186494D01*
X86578000Y-40329506D01*
X86550101Y-40469766D01*
X86495374Y-40601888D01*
X86495373Y-40601890D01*
X86415921Y-40720798D01*
X86314798Y-40821921D01*
X86195890Y-40901373D01*
X86195889Y-40901374D01*
X86195888Y-40901374D01*
X86063766Y-40956101D01*
X85923506Y-40984000D01*
X85780494Y-40984000D01*
X85640234Y-40956101D01*
X85508112Y-40901374D01*
X85508111Y-40901374D01*
X85508110Y-40901373D01*
X85389202Y-40821921D01*
X85288079Y-40720798D01*
X85208627Y-40601890D01*
X85208626Y-40601888D01*
X85153899Y-40469766D01*
X85126000Y-40329506D01*
X85126000Y-40186494D01*
X85153899Y-40046234D01*
X85208626Y-39914112D01*
X85214000Y-39906069D01*
X85288079Y-39795202D01*
X85389202Y-39694079D01*
X85508110Y-39614627D01*
X85508112Y-39614626D01*
X85640234Y-39559899D01*
X85780494Y-39532000D01*
X85923506Y-39532000D01*
X86063766Y-39559899D01*
G37*
G36*
X61622938Y-39638716D02*
G01*
X61643557Y-39644971D01*
X61662553Y-39655124D01*
X61679208Y-39668792D01*
X61692876Y-39685447D01*
X61703029Y-39704443D01*
X61709284Y-39725062D01*
X61712000Y-39752640D01*
X61712000Y-40211360D01*
X61709284Y-40238938D01*
X61703029Y-40259557D01*
X61692876Y-40278553D01*
X61679208Y-40295208D01*
X61662553Y-40308876D01*
X61643557Y-40319029D01*
X61622938Y-40325284D01*
X61595360Y-40328000D01*
X61086640Y-40328000D01*
X61059062Y-40325284D01*
X61038443Y-40319029D01*
X61019447Y-40308876D01*
X61002792Y-40295208D01*
X60989124Y-40278553D01*
X60978971Y-40259557D01*
X60972716Y-40238938D01*
X60970000Y-40211360D01*
X60970000Y-39752640D01*
X60972716Y-39725062D01*
X60978971Y-39704443D01*
X60989124Y-39685447D01*
X61002792Y-39668792D01*
X61019447Y-39655124D01*
X61038443Y-39644971D01*
X61059062Y-39638716D01*
X61086640Y-39636000D01*
X61595360Y-39636000D01*
X61622938Y-39638716D01*
G37*
G36*
X63651295Y-34007323D02*
G01*
X63658310Y-34009451D01*
X63664776Y-34012908D01*
X63670442Y-34017558D01*
X63675092Y-34023224D01*
X63678549Y-34029690D01*
X63680677Y-34036705D01*
X63682000Y-34050140D01*
X63682000Y-34363860D01*
X63680677Y-34377295D01*
X63678549Y-34384309D01*
X63671190Y-34398077D01*
X63661813Y-34420716D01*
X63657033Y-34444749D01*
X63657033Y-34469253D01*
X63661814Y-34493286D01*
X63671190Y-34515923D01*
X63678549Y-34529691D01*
X63680677Y-34536705D01*
X63682000Y-34550140D01*
X63682000Y-34863860D01*
X63680677Y-34877295D01*
X63678549Y-34884309D01*
X63671190Y-34898077D01*
X63661813Y-34920716D01*
X63657033Y-34944749D01*
X63657033Y-34969253D01*
X63661814Y-34993286D01*
X63671190Y-35015923D01*
X63678549Y-35029691D01*
X63680677Y-35036705D01*
X63682000Y-35050140D01*
X63682000Y-35363860D01*
X63680677Y-35377295D01*
X63678549Y-35384309D01*
X63671190Y-35398077D01*
X63661813Y-35420716D01*
X63657033Y-35444749D01*
X63657033Y-35469253D01*
X63661814Y-35493286D01*
X63671190Y-35515923D01*
X63678549Y-35529691D01*
X63680677Y-35536705D01*
X63682000Y-35550140D01*
X63682000Y-35863860D01*
X63680677Y-35877295D01*
X63678549Y-35884309D01*
X63671190Y-35898077D01*
X63661813Y-35920716D01*
X63657033Y-35944749D01*
X63657033Y-35969253D01*
X63661814Y-35993286D01*
X63671190Y-36015923D01*
X63678549Y-36029691D01*
X63680677Y-36036705D01*
X63682000Y-36050140D01*
X63682000Y-36363860D01*
X63680677Y-36377295D01*
X63678549Y-36384309D01*
X63671190Y-36398077D01*
X63661813Y-36420716D01*
X63657033Y-36444749D01*
X63657033Y-36469253D01*
X63661814Y-36493286D01*
X63671190Y-36515923D01*
X63678549Y-36529691D01*
X63680677Y-36536705D01*
X63682000Y-36550140D01*
X63682000Y-36863860D01*
X63680677Y-36877295D01*
X63678549Y-36884309D01*
X63671190Y-36898077D01*
X63661813Y-36920716D01*
X63657033Y-36944749D01*
X63657033Y-36969253D01*
X63661814Y-36993286D01*
X63671190Y-37015923D01*
X63678549Y-37029691D01*
X63680677Y-37036705D01*
X63682000Y-37050140D01*
X63682000Y-37363860D01*
X63680677Y-37377295D01*
X63678549Y-37384309D01*
X63671190Y-37398077D01*
X63661813Y-37420716D01*
X63657033Y-37444749D01*
X63657033Y-37469253D01*
X63661814Y-37493286D01*
X63671190Y-37515923D01*
X63678549Y-37529691D01*
X63680677Y-37536705D01*
X63682000Y-37550140D01*
X63682000Y-37863860D01*
X63680677Y-37877295D01*
X63678549Y-37884309D01*
X63671190Y-37898077D01*
X63661813Y-37920716D01*
X63657033Y-37944749D01*
X63657033Y-37969253D01*
X63661814Y-37993286D01*
X63671190Y-38015923D01*
X63678549Y-38029691D01*
X63680677Y-38036705D01*
X63682000Y-38050140D01*
X63682000Y-38363860D01*
X63680677Y-38377295D01*
X63678549Y-38384309D01*
X63671190Y-38398077D01*
X63661813Y-38420716D01*
X63657033Y-38444749D01*
X63657033Y-38469253D01*
X63661814Y-38493286D01*
X63671190Y-38515923D01*
X63678549Y-38529691D01*
X63680677Y-38536705D01*
X63682000Y-38550140D01*
X63682000Y-38863860D01*
X63680677Y-38877295D01*
X63678549Y-38884309D01*
X63671190Y-38898077D01*
X63661813Y-38920716D01*
X63657033Y-38944749D01*
X63657033Y-38969253D01*
X63661814Y-38993286D01*
X63671190Y-39015923D01*
X63678549Y-39029691D01*
X63680677Y-39036705D01*
X63682000Y-39050140D01*
X63682000Y-39363860D01*
X63680677Y-39377295D01*
X63678549Y-39384309D01*
X63671190Y-39398077D01*
X63661813Y-39420716D01*
X63657033Y-39444749D01*
X63657033Y-39469253D01*
X63661814Y-39493286D01*
X63671190Y-39515923D01*
X63678549Y-39529691D01*
X63680677Y-39536705D01*
X63682000Y-39550140D01*
X63682000Y-39863860D01*
X63680677Y-39877295D01*
X63678549Y-39884310D01*
X63675092Y-39890776D01*
X63670442Y-39896442D01*
X63664776Y-39901092D01*
X63658310Y-39904549D01*
X63651295Y-39906677D01*
X63637860Y-39908000D01*
X62149140Y-39908000D01*
X62135705Y-39906677D01*
X62128690Y-39904549D01*
X62122224Y-39901092D01*
X62116558Y-39896442D01*
X62111908Y-39890776D01*
X62108451Y-39884310D01*
X62106323Y-39877295D01*
X62105000Y-39863860D01*
X62105000Y-39550140D01*
X62106323Y-39536705D01*
X62108451Y-39529691D01*
X62115810Y-39515923D01*
X62125187Y-39493284D01*
X62129967Y-39469251D01*
X62129967Y-39444747D01*
X62125186Y-39420714D01*
X62115810Y-39398077D01*
X62108451Y-39384309D01*
X62106323Y-39377295D01*
X62105000Y-39363860D01*
X62105000Y-39050140D01*
X62106323Y-39036705D01*
X62108451Y-39029691D01*
X62115810Y-39015923D01*
X62125187Y-38993284D01*
X62129967Y-38969251D01*
X62129967Y-38944747D01*
X62125186Y-38920714D01*
X62115810Y-38898077D01*
X62108451Y-38884309D01*
X62106323Y-38877295D01*
X62105000Y-38863860D01*
X62105000Y-38550140D01*
X62106323Y-38536705D01*
X62108451Y-38529691D01*
X62115810Y-38515923D01*
X62125187Y-38493284D01*
X62129967Y-38469251D01*
X62129967Y-38444747D01*
X62125186Y-38420714D01*
X62115810Y-38398077D01*
X62108451Y-38384309D01*
X62106323Y-38377295D01*
X62105000Y-38363860D01*
X62105000Y-38050140D01*
X62106323Y-38036705D01*
X62108451Y-38029691D01*
X62115810Y-38015923D01*
X62125187Y-37993284D01*
X62129967Y-37969251D01*
X62129967Y-37944747D01*
X62125186Y-37920714D01*
X62115810Y-37898077D01*
X62108451Y-37884309D01*
X62106323Y-37877295D01*
X62105000Y-37863860D01*
X62105000Y-37550140D01*
X62106323Y-37536705D01*
X62108451Y-37529691D01*
X62115810Y-37515923D01*
X62125187Y-37493284D01*
X62129967Y-37469251D01*
X62129967Y-37444747D01*
X62125186Y-37420714D01*
X62115810Y-37398077D01*
X62108451Y-37384309D01*
X62106323Y-37377295D01*
X62105000Y-37363860D01*
X62105000Y-37050140D01*
X62106323Y-37036705D01*
X62108451Y-37029691D01*
X62115810Y-37015923D01*
X62125187Y-36993284D01*
X62129967Y-36969251D01*
X62129967Y-36944747D01*
X62125186Y-36920714D01*
X62115810Y-36898077D01*
X62108451Y-36884309D01*
X62106323Y-36877295D01*
X62105000Y-36863860D01*
X62105000Y-36550140D01*
X62106323Y-36536705D01*
X62108451Y-36529691D01*
X62115810Y-36515923D01*
X62125187Y-36493284D01*
X62129967Y-36469251D01*
X62129967Y-36444747D01*
X62125186Y-36420714D01*
X62115810Y-36398077D01*
X62108451Y-36384309D01*
X62106323Y-36377295D01*
X62105000Y-36363860D01*
X62105000Y-36050140D01*
X62106323Y-36036705D01*
X62108451Y-36029691D01*
X62115810Y-36015923D01*
X62125187Y-35993284D01*
X62129967Y-35969251D01*
X62129967Y-35944747D01*
X62125186Y-35920714D01*
X62115810Y-35898077D01*
X62108451Y-35884309D01*
X62106323Y-35877295D01*
X62105000Y-35863860D01*
X62105000Y-35550140D01*
X62106323Y-35536705D01*
X62108451Y-35529691D01*
X62115810Y-35515923D01*
X62125187Y-35493284D01*
X62129967Y-35469251D01*
X62129967Y-35444747D01*
X62125186Y-35420714D01*
X62115810Y-35398077D01*
X62108451Y-35384309D01*
X62106323Y-35377295D01*
X62105000Y-35363860D01*
X62105000Y-35050140D01*
X62106323Y-35036705D01*
X62108451Y-35029691D01*
X62115810Y-35015923D01*
X62125187Y-34993284D01*
X62129967Y-34969251D01*
X62129967Y-34944747D01*
X62125186Y-34920714D01*
X62115810Y-34898077D01*
X62108451Y-34884309D01*
X62106323Y-34877295D01*
X62105000Y-34863860D01*
X62105000Y-34550140D01*
X62106323Y-34536705D01*
X62108451Y-34529691D01*
X62115810Y-34515923D01*
X62125187Y-34493284D01*
X62129967Y-34469251D01*
X62129967Y-34444747D01*
X62125186Y-34420714D01*
X62115810Y-34398077D01*
X62108451Y-34384309D01*
X62106323Y-34377295D01*
X62105000Y-34363860D01*
X62105000Y-34050140D01*
X62106323Y-34036705D01*
X62108451Y-34029690D01*
X62111908Y-34023224D01*
X62116558Y-34017558D01*
X62122224Y-34012908D01*
X62128690Y-34009451D01*
X62135705Y-34007323D01*
X62149140Y-34006000D01*
X63637860Y-34006000D01*
X63651295Y-34007323D01*
G37*
G36*
X71976295Y-34007323D02*
G01*
X71983310Y-34009451D01*
X71989776Y-34012908D01*
X71995442Y-34017558D01*
X72000092Y-34023224D01*
X72003549Y-34029690D01*
X72005677Y-34036705D01*
X72007000Y-34050140D01*
X72007000Y-34363860D01*
X72005677Y-34377295D01*
X72003549Y-34384309D01*
X71996190Y-34398077D01*
X71986813Y-34420716D01*
X71982033Y-34444749D01*
X71982033Y-34469253D01*
X71986814Y-34493286D01*
X71996190Y-34515923D01*
X72003549Y-34529691D01*
X72005677Y-34536705D01*
X72007000Y-34550140D01*
X72007000Y-34863860D01*
X72005677Y-34877295D01*
X72003549Y-34884309D01*
X71996190Y-34898077D01*
X71986813Y-34920716D01*
X71982033Y-34944749D01*
X71982033Y-34969253D01*
X71986814Y-34993286D01*
X71996190Y-35015923D01*
X72003549Y-35029691D01*
X72005677Y-35036705D01*
X72007000Y-35050140D01*
X72007000Y-35363860D01*
X72005677Y-35377295D01*
X72003549Y-35384309D01*
X71996190Y-35398077D01*
X71986813Y-35420716D01*
X71982033Y-35444749D01*
X71982033Y-35469253D01*
X71986814Y-35493286D01*
X71996190Y-35515923D01*
X72003549Y-35529691D01*
X72005677Y-35536705D01*
X72007000Y-35550140D01*
X72007000Y-35863860D01*
X72005677Y-35877295D01*
X72003549Y-35884309D01*
X71996190Y-35898077D01*
X71986813Y-35920716D01*
X71982033Y-35944749D01*
X71982033Y-35969253D01*
X71986814Y-35993286D01*
X71996190Y-36015923D01*
X72003549Y-36029691D01*
X72005677Y-36036705D01*
X72007000Y-36050140D01*
X72007000Y-36363860D01*
X72005677Y-36377295D01*
X72003549Y-36384309D01*
X71996190Y-36398077D01*
X71986813Y-36420716D01*
X71982033Y-36444749D01*
X71982033Y-36469253D01*
X71986814Y-36493286D01*
X71996190Y-36515923D01*
X72003549Y-36529691D01*
X72005677Y-36536705D01*
X72007000Y-36550140D01*
X72007000Y-36863860D01*
X72005677Y-36877295D01*
X72003549Y-36884309D01*
X71996190Y-36898077D01*
X71986813Y-36920716D01*
X71982033Y-36944749D01*
X71982033Y-36969253D01*
X71986814Y-36993286D01*
X71996190Y-37015923D01*
X72003549Y-37029691D01*
X72005677Y-37036705D01*
X72007000Y-37050140D01*
X72007000Y-37363860D01*
X72005677Y-37377295D01*
X72003549Y-37384309D01*
X71996190Y-37398077D01*
X71986813Y-37420716D01*
X71982033Y-37444749D01*
X71982033Y-37469253D01*
X71986814Y-37493286D01*
X71996190Y-37515923D01*
X72003549Y-37529691D01*
X72005677Y-37536705D01*
X72007000Y-37550140D01*
X72007000Y-37863860D01*
X72005677Y-37877295D01*
X72003549Y-37884309D01*
X71996190Y-37898077D01*
X71986813Y-37920716D01*
X71982033Y-37944749D01*
X71982033Y-37969253D01*
X71986814Y-37993286D01*
X71996190Y-38015923D01*
X72003549Y-38029691D01*
X72005677Y-38036705D01*
X72007000Y-38050140D01*
X72007000Y-38363860D01*
X72005677Y-38377295D01*
X72003549Y-38384309D01*
X71996190Y-38398077D01*
X71986813Y-38420716D01*
X71982033Y-38444749D01*
X71982033Y-38469253D01*
X71986814Y-38493286D01*
X71996190Y-38515923D01*
X72003549Y-38529691D01*
X72005677Y-38536705D01*
X72007000Y-38550140D01*
X72007000Y-38863860D01*
X72005677Y-38877295D01*
X72003549Y-38884309D01*
X71996190Y-38898077D01*
X71986813Y-38920716D01*
X71982033Y-38944749D01*
X71982033Y-38969253D01*
X71986814Y-38993286D01*
X71996190Y-39015923D01*
X72003549Y-39029691D01*
X72005677Y-39036705D01*
X72007000Y-39050140D01*
X72007000Y-39363860D01*
X72005677Y-39377295D01*
X72003549Y-39384309D01*
X71996190Y-39398077D01*
X71986813Y-39420716D01*
X71982033Y-39444749D01*
X71982033Y-39469253D01*
X71986814Y-39493286D01*
X71996190Y-39515923D01*
X72003549Y-39529691D01*
X72005677Y-39536705D01*
X72007000Y-39550140D01*
X72007000Y-39863860D01*
X72005677Y-39877295D01*
X72003549Y-39884310D01*
X72000092Y-39890776D01*
X71995442Y-39896442D01*
X71989776Y-39901092D01*
X71983310Y-39904549D01*
X71976295Y-39906677D01*
X71962860Y-39908000D01*
X70474140Y-39908000D01*
X70460705Y-39906677D01*
X70453690Y-39904549D01*
X70447224Y-39901092D01*
X70441558Y-39896442D01*
X70436908Y-39890776D01*
X70433451Y-39884310D01*
X70431323Y-39877295D01*
X70430000Y-39863860D01*
X70430000Y-39550140D01*
X70431323Y-39536705D01*
X70433451Y-39529691D01*
X70440810Y-39515923D01*
X70450187Y-39493284D01*
X70454967Y-39469251D01*
X70454967Y-39444747D01*
X70450186Y-39420714D01*
X70440810Y-39398077D01*
X70433451Y-39384309D01*
X70431323Y-39377295D01*
X70430000Y-39363860D01*
X70430000Y-39050140D01*
X70431323Y-39036705D01*
X70433451Y-39029691D01*
X70440810Y-39015923D01*
X70450187Y-38993284D01*
X70454967Y-38969251D01*
X70454967Y-38944747D01*
X70450186Y-38920714D01*
X70440810Y-38898077D01*
X70433451Y-38884309D01*
X70431323Y-38877295D01*
X70430000Y-38863860D01*
X70430000Y-38550140D01*
X70431323Y-38536705D01*
X70433451Y-38529691D01*
X70440810Y-38515923D01*
X70450187Y-38493284D01*
X70454967Y-38469251D01*
X70454967Y-38444747D01*
X70450186Y-38420714D01*
X70440810Y-38398077D01*
X70433451Y-38384309D01*
X70431323Y-38377295D01*
X70430000Y-38363860D01*
X70430000Y-38050140D01*
X70431323Y-38036705D01*
X70433451Y-38029691D01*
X70440810Y-38015923D01*
X70450187Y-37993284D01*
X70454967Y-37969251D01*
X70454967Y-37944747D01*
X70450186Y-37920714D01*
X70440810Y-37898077D01*
X70433451Y-37884309D01*
X70431323Y-37877295D01*
X70430000Y-37863860D01*
X70430000Y-37550140D01*
X70431323Y-37536705D01*
X70433451Y-37529691D01*
X70440810Y-37515923D01*
X70450187Y-37493284D01*
X70454967Y-37469251D01*
X70454967Y-37444747D01*
X70450186Y-37420714D01*
X70440810Y-37398077D01*
X70433451Y-37384309D01*
X70431323Y-37377295D01*
X70430000Y-37363860D01*
X70430000Y-37050140D01*
X70431323Y-37036705D01*
X70433451Y-37029691D01*
X70440810Y-37015923D01*
X70450187Y-36993284D01*
X70454967Y-36969251D01*
X70454967Y-36944747D01*
X70450186Y-36920714D01*
X70440810Y-36898077D01*
X70433451Y-36884309D01*
X70431323Y-36877295D01*
X70430000Y-36863860D01*
X70430000Y-36550140D01*
X70431323Y-36536705D01*
X70433451Y-36529691D01*
X70440810Y-36515923D01*
X70450187Y-36493284D01*
X70454967Y-36469251D01*
X70454967Y-36444747D01*
X70450186Y-36420714D01*
X70440810Y-36398077D01*
X70433451Y-36384309D01*
X70431323Y-36377295D01*
X70430000Y-36363860D01*
X70430000Y-36050140D01*
X70431323Y-36036705D01*
X70433451Y-36029691D01*
X70440810Y-36015923D01*
X70450187Y-35993284D01*
X70454967Y-35969251D01*
X70454967Y-35944747D01*
X70450186Y-35920714D01*
X70440810Y-35898077D01*
X70433451Y-35884309D01*
X70431323Y-35877295D01*
X70430000Y-35863860D01*
X70430000Y-35550140D01*
X70431323Y-35536705D01*
X70433451Y-35529691D01*
X70440810Y-35515923D01*
X70450187Y-35493284D01*
X70454967Y-35469251D01*
X70454967Y-35444747D01*
X70450186Y-35420714D01*
X70440810Y-35398077D01*
X70433451Y-35384309D01*
X70431323Y-35377295D01*
X70430000Y-35363860D01*
X70430000Y-35050140D01*
X70431323Y-35036705D01*
X70433451Y-35029691D01*
X70440810Y-35015923D01*
X70450187Y-34993284D01*
X70454967Y-34969251D01*
X70454967Y-34944747D01*
X70450186Y-34920714D01*
X70440810Y-34898077D01*
X70433451Y-34884309D01*
X70431323Y-34877295D01*
X70430000Y-34863860D01*
X70430000Y-34550140D01*
X70431323Y-34536705D01*
X70433451Y-34529691D01*
X70440810Y-34515923D01*
X70450187Y-34493284D01*
X70454967Y-34469251D01*
X70454967Y-34444747D01*
X70450186Y-34420714D01*
X70440810Y-34398077D01*
X70433451Y-34384309D01*
X70431323Y-34377295D01*
X70430000Y-34363860D01*
X70430000Y-34050140D01*
X70431323Y-34036705D01*
X70433451Y-34029690D01*
X70436908Y-34023224D01*
X70441558Y-34017558D01*
X70447224Y-34012908D01*
X70453690Y-34009451D01*
X70460705Y-34007323D01*
X70474140Y-34006000D01*
X71962860Y-34006000D01*
X71976295Y-34007323D01*
G37*
G36*
X61622938Y-38668716D02*
G01*
X61643557Y-38674971D01*
X61662553Y-38685124D01*
X61679208Y-38698792D01*
X61692876Y-38715447D01*
X61703029Y-38734443D01*
X61709284Y-38755062D01*
X61712000Y-38782640D01*
X61712000Y-39241360D01*
X61709284Y-39268938D01*
X61703029Y-39289557D01*
X61692876Y-39308553D01*
X61679208Y-39325208D01*
X61662553Y-39338876D01*
X61643557Y-39349029D01*
X61622938Y-39355284D01*
X61595360Y-39358000D01*
X61086640Y-39358000D01*
X61059062Y-39355284D01*
X61038443Y-39349029D01*
X61019447Y-39338876D01*
X61002792Y-39325208D01*
X60989124Y-39308553D01*
X60978971Y-39289557D01*
X60972716Y-39268938D01*
X60970000Y-39241360D01*
X60970000Y-38782640D01*
X60972716Y-38755062D01*
X60978971Y-38734443D01*
X60989124Y-38715447D01*
X61002792Y-38698792D01*
X61019447Y-38685124D01*
X61038443Y-38674971D01*
X61059062Y-38668716D01*
X61086640Y-38666000D01*
X61595360Y-38666000D01*
X61622938Y-38668716D01*
G37*
G36*
X86063766Y-37559899D02*
G01*
X86195888Y-37614626D01*
X86195890Y-37614627D01*
X86314798Y-37694079D01*
X86415921Y-37795202D01*
X86479973Y-37891063D01*
X86495374Y-37914112D01*
X86550101Y-38046234D01*
X86578000Y-38186494D01*
X86578000Y-38329506D01*
X86550101Y-38469766D01*
X86516591Y-38550665D01*
X86495373Y-38601890D01*
X86415921Y-38720798D01*
X86314798Y-38821921D01*
X86195890Y-38901373D01*
X86195889Y-38901374D01*
X86195888Y-38901374D01*
X86063766Y-38956101D01*
X85923506Y-38984000D01*
X85780494Y-38984000D01*
X85640234Y-38956101D01*
X85508112Y-38901374D01*
X85508111Y-38901374D01*
X85508110Y-38901373D01*
X85389202Y-38821921D01*
X85288079Y-38720798D01*
X85208627Y-38601890D01*
X85187409Y-38550665D01*
X85153899Y-38469766D01*
X85126000Y-38329506D01*
X85126000Y-38186494D01*
X85153899Y-38046234D01*
X85208626Y-37914112D01*
X85224027Y-37891063D01*
X85288079Y-37795202D01*
X85389202Y-37694079D01*
X85508110Y-37614627D01*
X85508112Y-37614626D01*
X85640234Y-37559899D01*
X85780494Y-37532000D01*
X85923506Y-37532000D01*
X86063766Y-37559899D01*
G37*
G36*
X86063766Y-35559899D02*
G01*
X86195888Y-35614626D01*
X86195890Y-35614627D01*
X86314798Y-35694079D01*
X86415921Y-35795202D01*
X86479973Y-35891063D01*
X86495374Y-35914112D01*
X86550101Y-36046234D01*
X86578000Y-36186494D01*
X86578000Y-36329506D01*
X86550101Y-36469766D01*
X86516591Y-36550665D01*
X86495373Y-36601890D01*
X86415921Y-36720798D01*
X86314798Y-36821921D01*
X86195890Y-36901373D01*
X86195889Y-36901374D01*
X86195888Y-36901374D01*
X86063766Y-36956101D01*
X85923506Y-36984000D01*
X85780494Y-36984000D01*
X85640234Y-36956101D01*
X85508112Y-36901374D01*
X85508111Y-36901374D01*
X85508110Y-36901373D01*
X85389202Y-36821921D01*
X85288079Y-36720798D01*
X85208627Y-36601890D01*
X85187409Y-36550665D01*
X85153899Y-36469766D01*
X85126000Y-36329506D01*
X85126000Y-36186494D01*
X85153899Y-36046234D01*
X85208626Y-35914112D01*
X85224027Y-35891063D01*
X85288079Y-35795202D01*
X85389202Y-35694079D01*
X85508110Y-35614627D01*
X85508112Y-35614626D01*
X85640234Y-35559899D01*
X85780494Y-35532000D01*
X85923506Y-35532000D01*
X86063766Y-35559899D01*
G37*
G36*
X47664468Y-34178565D02*
G01*
X47703138Y-34190296D01*
X47738777Y-34209346D01*
X47770017Y-34234983D01*
X47795654Y-34266223D01*
X47814704Y-34301862D01*
X47826435Y-34340532D01*
X47831000Y-34386888D01*
X47831000Y-35463112D01*
X47826435Y-35509468D01*
X47814704Y-35548138D01*
X47795654Y-35583777D01*
X47770017Y-35615017D01*
X47738777Y-35640654D01*
X47703138Y-35659704D01*
X47664468Y-35671435D01*
X47618112Y-35676000D01*
X46966888Y-35676000D01*
X46920532Y-35671435D01*
X46881862Y-35659704D01*
X46846223Y-35640654D01*
X46814983Y-35615017D01*
X46789346Y-35583777D01*
X46770296Y-35548138D01*
X46758565Y-35509468D01*
X46754000Y-35463112D01*
X46754000Y-34386888D01*
X46758565Y-34340532D01*
X46770296Y-34301862D01*
X46789346Y-34266223D01*
X46814983Y-34234983D01*
X46846223Y-34209346D01*
X46881862Y-34190296D01*
X46920532Y-34178565D01*
X46966888Y-34174000D01*
X47618112Y-34174000D01*
X47664468Y-34178565D01*
G37*
G36*
X45789468Y-34178565D02*
G01*
X45828138Y-34190296D01*
X45863777Y-34209346D01*
X45895017Y-34234983D01*
X45920654Y-34266223D01*
X45939704Y-34301862D01*
X45951435Y-34340532D01*
X45956000Y-34386888D01*
X45956000Y-35463112D01*
X45951435Y-35509468D01*
X45939704Y-35548138D01*
X45920654Y-35583777D01*
X45895017Y-35615017D01*
X45863777Y-35640654D01*
X45828138Y-35659704D01*
X45789468Y-35671435D01*
X45743112Y-35676000D01*
X45091888Y-35676000D01*
X45045532Y-35671435D01*
X45006862Y-35659704D01*
X44971223Y-35640654D01*
X44939983Y-35615017D01*
X44914346Y-35583777D01*
X44895296Y-35548138D01*
X44883565Y-35509468D01*
X44879000Y-35463112D01*
X44879000Y-34386888D01*
X44883565Y-34340532D01*
X44895296Y-34301862D01*
X44914346Y-34266223D01*
X44939983Y-34234983D01*
X44971223Y-34209346D01*
X45006862Y-34190296D01*
X45045532Y-34178565D01*
X45091888Y-34174000D01*
X45743112Y-34174000D01*
X45789468Y-34178565D01*
G37*
G36*
X73052938Y-34558716D02*
G01*
X73073557Y-34564971D01*
X73092553Y-34575124D01*
X73109208Y-34588792D01*
X73122876Y-34605447D01*
X73133029Y-34624443D01*
X73139284Y-34645062D01*
X73142000Y-34672640D01*
X73142000Y-35131360D01*
X73139284Y-35158938D01*
X73133029Y-35179557D01*
X73122876Y-35198553D01*
X73109208Y-35215208D01*
X73092553Y-35228876D01*
X73073557Y-35239029D01*
X73052938Y-35245284D01*
X73025360Y-35248000D01*
X72516640Y-35248000D01*
X72489062Y-35245284D01*
X72468443Y-35239029D01*
X72449447Y-35228876D01*
X72432792Y-35215208D01*
X72419124Y-35198553D01*
X72408971Y-35179557D01*
X72402716Y-35158938D01*
X72400000Y-35131360D01*
X72400000Y-34672640D01*
X72402716Y-34645062D01*
X72408971Y-34624443D01*
X72419124Y-34605447D01*
X72432792Y-34588792D01*
X72449447Y-34575124D01*
X72468443Y-34564971D01*
X72489062Y-34558716D01*
X72516640Y-34556000D01*
X73025360Y-34556000D01*
X73052938Y-34558716D01*
G37*
G36*
X86063766Y-33559899D02*
G01*
X86195888Y-33614626D01*
X86195890Y-33614627D01*
X86314798Y-33694079D01*
X86415921Y-33795202D01*
X86415922Y-33795204D01*
X86495374Y-33914112D01*
X86550101Y-34046234D01*
X86578000Y-34186494D01*
X86578000Y-34329506D01*
X86550101Y-34469766D01*
X86495374Y-34601888D01*
X86495373Y-34601890D01*
X86415921Y-34720798D01*
X86314798Y-34821921D01*
X86195890Y-34901373D01*
X86195889Y-34901374D01*
X86195888Y-34901374D01*
X86063766Y-34956101D01*
X85923506Y-34984000D01*
X85780494Y-34984000D01*
X85640234Y-34956101D01*
X85508112Y-34901374D01*
X85508111Y-34901374D01*
X85508110Y-34901373D01*
X85389202Y-34821921D01*
X85288079Y-34720798D01*
X85208627Y-34601890D01*
X85208626Y-34601888D01*
X85153899Y-34469766D01*
X85126000Y-34329506D01*
X85126000Y-34186494D01*
X85153899Y-34046234D01*
X85208626Y-33914112D01*
X85288078Y-33795204D01*
X85288079Y-33795202D01*
X85389202Y-33694079D01*
X85508110Y-33614627D01*
X85508112Y-33614626D01*
X85640234Y-33559899D01*
X85780494Y-33532000D01*
X85923506Y-33532000D01*
X86063766Y-33559899D01*
G37*
G36*
X73052938Y-33588716D02*
G01*
X73073557Y-33594971D01*
X73092553Y-33605124D01*
X73109208Y-33618792D01*
X73122876Y-33635447D01*
X73133029Y-33654443D01*
X73139284Y-33675062D01*
X73142000Y-33702640D01*
X73142000Y-34161360D01*
X73139284Y-34188938D01*
X73133029Y-34209557D01*
X73122876Y-34228553D01*
X73109208Y-34245208D01*
X73092553Y-34258876D01*
X73073557Y-34269029D01*
X73052938Y-34275284D01*
X73025360Y-34278000D01*
X72516640Y-34278000D01*
X72489062Y-34275284D01*
X72468443Y-34269029D01*
X72449447Y-34258876D01*
X72432792Y-34245208D01*
X72419124Y-34228553D01*
X72408971Y-34209557D01*
X72402716Y-34188938D01*
X72400000Y-34161360D01*
X72400000Y-33702640D01*
X72402716Y-33675062D01*
X72408971Y-33654443D01*
X72419124Y-33635447D01*
X72432792Y-33618792D01*
X72449447Y-33605124D01*
X72468443Y-33594971D01*
X72489062Y-33588716D01*
X72516640Y-33586000D01*
X73025360Y-33586000D01*
X73052938Y-33588716D01*
G37*
G36*
X64476295Y-32007323D02*
G01*
X64483309Y-32009451D01*
X64497077Y-32016810D01*
X64519716Y-32026187D01*
X64543749Y-32030967D01*
X64568253Y-32030967D01*
X64592286Y-32026186D01*
X64614923Y-32016810D01*
X64628691Y-32009451D01*
X64635705Y-32007323D01*
X64649140Y-32006000D01*
X64962860Y-32006000D01*
X64976295Y-32007323D01*
X64983309Y-32009451D01*
X64997077Y-32016810D01*
X65019716Y-32026187D01*
X65043749Y-32030967D01*
X65068253Y-32030967D01*
X65092286Y-32026186D01*
X65114923Y-32016810D01*
X65128691Y-32009451D01*
X65135705Y-32007323D01*
X65149140Y-32006000D01*
X65462860Y-32006000D01*
X65476295Y-32007323D01*
X65483309Y-32009451D01*
X65497077Y-32016810D01*
X65519716Y-32026187D01*
X65543749Y-32030967D01*
X65568253Y-32030967D01*
X65592286Y-32026186D01*
X65614923Y-32016810D01*
X65628691Y-32009451D01*
X65635705Y-32007323D01*
X65649140Y-32006000D01*
X65962860Y-32006000D01*
X65976295Y-32007323D01*
X65983309Y-32009451D01*
X65997077Y-32016810D01*
X66019716Y-32026187D01*
X66043749Y-32030967D01*
X66068253Y-32030967D01*
X66092286Y-32026186D01*
X66114923Y-32016810D01*
X66128691Y-32009451D01*
X66135705Y-32007323D01*
X66149140Y-32006000D01*
X66462860Y-32006000D01*
X66476295Y-32007323D01*
X66483309Y-32009451D01*
X66497077Y-32016810D01*
X66519716Y-32026187D01*
X66543749Y-32030967D01*
X66568253Y-32030967D01*
X66592286Y-32026186D01*
X66614923Y-32016810D01*
X66628691Y-32009451D01*
X66635705Y-32007323D01*
X66649140Y-32006000D01*
X66962860Y-32006000D01*
X66976295Y-32007323D01*
X66983309Y-32009451D01*
X66997077Y-32016810D01*
X67019716Y-32026187D01*
X67043749Y-32030967D01*
X67068253Y-32030967D01*
X67092286Y-32026186D01*
X67114923Y-32016810D01*
X67128691Y-32009451D01*
X67135705Y-32007323D01*
X67149140Y-32006000D01*
X67462860Y-32006000D01*
X67476295Y-32007323D01*
X67483309Y-32009451D01*
X67497077Y-32016810D01*
X67519716Y-32026187D01*
X67543749Y-32030967D01*
X67568253Y-32030967D01*
X67592286Y-32026186D01*
X67614923Y-32016810D01*
X67628691Y-32009451D01*
X67635705Y-32007323D01*
X67649140Y-32006000D01*
X67962860Y-32006000D01*
X67976295Y-32007323D01*
X67983309Y-32009451D01*
X67997077Y-32016810D01*
X68019716Y-32026187D01*
X68043749Y-32030967D01*
X68068253Y-32030967D01*
X68092286Y-32026186D01*
X68114923Y-32016810D01*
X68128691Y-32009451D01*
X68135705Y-32007323D01*
X68149140Y-32006000D01*
X68462860Y-32006000D01*
X68476295Y-32007323D01*
X68483309Y-32009451D01*
X68497077Y-32016810D01*
X68519716Y-32026187D01*
X68543749Y-32030967D01*
X68568253Y-32030967D01*
X68592286Y-32026186D01*
X68614923Y-32016810D01*
X68628691Y-32009451D01*
X68635705Y-32007323D01*
X68649140Y-32006000D01*
X68962860Y-32006000D01*
X68976295Y-32007323D01*
X68983309Y-32009451D01*
X68997077Y-32016810D01*
X69019716Y-32026187D01*
X69043749Y-32030967D01*
X69068253Y-32030967D01*
X69092286Y-32026186D01*
X69114923Y-32016810D01*
X69128691Y-32009451D01*
X69135705Y-32007323D01*
X69149140Y-32006000D01*
X69462860Y-32006000D01*
X69476295Y-32007323D01*
X69483309Y-32009451D01*
X69497077Y-32016810D01*
X69519716Y-32026187D01*
X69543749Y-32030967D01*
X69568253Y-32030967D01*
X69592286Y-32026186D01*
X69614923Y-32016810D01*
X69628691Y-32009451D01*
X69635705Y-32007323D01*
X69649140Y-32006000D01*
X69962860Y-32006000D01*
X69976295Y-32007323D01*
X69983310Y-32009451D01*
X69989776Y-32012908D01*
X69995442Y-32017558D01*
X70000092Y-32023224D01*
X70003549Y-32029690D01*
X70005677Y-32036705D01*
X70007000Y-32050140D01*
X70007000Y-33538860D01*
X70005677Y-33552295D01*
X70003549Y-33559310D01*
X70000092Y-33565776D01*
X69995442Y-33571442D01*
X69989776Y-33576092D01*
X69983310Y-33579549D01*
X69976295Y-33581677D01*
X69962860Y-33583000D01*
X69649140Y-33583000D01*
X69635705Y-33581677D01*
X69628691Y-33579549D01*
X69614923Y-33572190D01*
X69592284Y-33562813D01*
X69568251Y-33558033D01*
X69543747Y-33558033D01*
X69519714Y-33562814D01*
X69497077Y-33572190D01*
X69483309Y-33579549D01*
X69476295Y-33581677D01*
X69462860Y-33583000D01*
X69149140Y-33583000D01*
X69135705Y-33581677D01*
X69128691Y-33579549D01*
X69114923Y-33572190D01*
X69092284Y-33562813D01*
X69068251Y-33558033D01*
X69043747Y-33558033D01*
X69019714Y-33562814D01*
X68997077Y-33572190D01*
X68983309Y-33579549D01*
X68976295Y-33581677D01*
X68962860Y-33583000D01*
X68649140Y-33583000D01*
X68635705Y-33581677D01*
X68628691Y-33579549D01*
X68614923Y-33572190D01*
X68592284Y-33562813D01*
X68568251Y-33558033D01*
X68543747Y-33558033D01*
X68519714Y-33562814D01*
X68497077Y-33572190D01*
X68483309Y-33579549D01*
X68476295Y-33581677D01*
X68462860Y-33583000D01*
X68149140Y-33583000D01*
X68135705Y-33581677D01*
X68128691Y-33579549D01*
X68114923Y-33572190D01*
X68092284Y-33562813D01*
X68068251Y-33558033D01*
X68043747Y-33558033D01*
X68019714Y-33562814D01*
X67997077Y-33572190D01*
X67983309Y-33579549D01*
X67976295Y-33581677D01*
X67962860Y-33583000D01*
X67649140Y-33583000D01*
X67635705Y-33581677D01*
X67628691Y-33579549D01*
X67614923Y-33572190D01*
X67592284Y-33562813D01*
X67568251Y-33558033D01*
X67543747Y-33558033D01*
X67519714Y-33562814D01*
X67497077Y-33572190D01*
X67483309Y-33579549D01*
X67476295Y-33581677D01*
X67462860Y-33583000D01*
X67149140Y-33583000D01*
X67135705Y-33581677D01*
X67128691Y-33579549D01*
X67114923Y-33572190D01*
X67092284Y-33562813D01*
X67068251Y-33558033D01*
X67043747Y-33558033D01*
X67019714Y-33562814D01*
X66997077Y-33572190D01*
X66983309Y-33579549D01*
X66976295Y-33581677D01*
X66962860Y-33583000D01*
X66649140Y-33583000D01*
X66635705Y-33581677D01*
X66628691Y-33579549D01*
X66614923Y-33572190D01*
X66592284Y-33562813D01*
X66568251Y-33558033D01*
X66543747Y-33558033D01*
X66519714Y-33562814D01*
X66497077Y-33572190D01*
X66483309Y-33579549D01*
X66476295Y-33581677D01*
X66462860Y-33583000D01*
X66149140Y-33583000D01*
X66135705Y-33581677D01*
X66128691Y-33579549D01*
X66114923Y-33572190D01*
X66092284Y-33562813D01*
X66068251Y-33558033D01*
X66043747Y-33558033D01*
X66019714Y-33562814D01*
X65997077Y-33572190D01*
X65983309Y-33579549D01*
X65976295Y-33581677D01*
X65962860Y-33583000D01*
X65649140Y-33583000D01*
X65635705Y-33581677D01*
X65628691Y-33579549D01*
X65614923Y-33572190D01*
X65592284Y-33562813D01*
X65568251Y-33558033D01*
X65543747Y-33558033D01*
X65519714Y-33562814D01*
X65497077Y-33572190D01*
X65483309Y-33579549D01*
X65476295Y-33581677D01*
X65462860Y-33583000D01*
X65149140Y-33583000D01*
X65135705Y-33581677D01*
X65128691Y-33579549D01*
X65114923Y-33572190D01*
X65092284Y-33562813D01*
X65068251Y-33558033D01*
X65043747Y-33558033D01*
X65019714Y-33562814D01*
X64997077Y-33572190D01*
X64983309Y-33579549D01*
X64976295Y-33581677D01*
X64962860Y-33583000D01*
X64649140Y-33583000D01*
X64635705Y-33581677D01*
X64628691Y-33579549D01*
X64614923Y-33572190D01*
X64592284Y-33562813D01*
X64568251Y-33558033D01*
X64543747Y-33558033D01*
X64519714Y-33562814D01*
X64497077Y-33572190D01*
X64483309Y-33579549D01*
X64476295Y-33581677D01*
X64462860Y-33583000D01*
X64149140Y-33583000D01*
X64135705Y-33581677D01*
X64128690Y-33579549D01*
X64122224Y-33576092D01*
X64116558Y-33571442D01*
X64111908Y-33565776D01*
X64108451Y-33559310D01*
X64106323Y-33552295D01*
X64105000Y-33538860D01*
X64105000Y-32050140D01*
X64106323Y-32036705D01*
X64108451Y-32029690D01*
X64111908Y-32023224D01*
X64116558Y-32017558D01*
X64122224Y-32012908D01*
X64128690Y-32009451D01*
X64135705Y-32007323D01*
X64149140Y-32006000D01*
X64462860Y-32006000D01*
X64476295Y-32007323D01*
G37*
G36*
X86063766Y-31559899D02*
G01*
X86195888Y-31614626D01*
X86195890Y-31614627D01*
X86314798Y-31694079D01*
X86415921Y-31795202D01*
X86415922Y-31795204D01*
X86495374Y-31914112D01*
X86550101Y-32046234D01*
X86578000Y-32186494D01*
X86578000Y-32329506D01*
X86550101Y-32469766D01*
X86495374Y-32601888D01*
X86495373Y-32601890D01*
X86415921Y-32720798D01*
X86314798Y-32821921D01*
X86195890Y-32901373D01*
X86195889Y-32901374D01*
X86195888Y-32901374D01*
X86063766Y-32956101D01*
X85923506Y-32984000D01*
X85780494Y-32984000D01*
X85640234Y-32956101D01*
X85508112Y-32901374D01*
X85508111Y-32901374D01*
X85508110Y-32901373D01*
X85389202Y-32821921D01*
X85288079Y-32720798D01*
X85208627Y-32601890D01*
X85208626Y-32601888D01*
X85153899Y-32469766D01*
X85126000Y-32329506D01*
X85126000Y-32186494D01*
X85153899Y-32046234D01*
X85208626Y-31914112D01*
X85288078Y-31795204D01*
X85288079Y-31795202D01*
X85389202Y-31694079D01*
X85508110Y-31614627D01*
X85508112Y-31614626D01*
X85640234Y-31559899D01*
X85780494Y-31532000D01*
X85923506Y-31532000D01*
X86063766Y-31559899D01*
G37*
G36*
X49061000Y-32776000D02*
G01*
X47459000Y-32776000D01*
X47459000Y-30674000D01*
X49061000Y-30674000D01*
X49061000Y-32776000D01*
G37*
G36*
X46761000Y-32776000D02*
G01*
X45159000Y-32776000D01*
X45159000Y-30674000D01*
X46761000Y-30674000D01*
X46761000Y-32776000D01*
G37*
G36*
X51361000Y-32776000D02*
G01*
X49759000Y-32776000D01*
X49759000Y-30674000D01*
X51361000Y-30674000D01*
X51361000Y-32776000D01*
G37*
G36*
X39312468Y-30495565D02*
G01*
X39351138Y-30507296D01*
X39386777Y-30526346D01*
X39418017Y-30551983D01*
X39443654Y-30583223D01*
X39462704Y-30618862D01*
X39474435Y-30657532D01*
X39479000Y-30703888D01*
X39479000Y-31780112D01*
X39474435Y-31826468D01*
X39462704Y-31865138D01*
X39443654Y-31900777D01*
X39418017Y-31932017D01*
X39386777Y-31957654D01*
X39351138Y-31976704D01*
X39312468Y-31988435D01*
X39266112Y-31993000D01*
X38614888Y-31993000D01*
X38568532Y-31988435D01*
X38529862Y-31976704D01*
X38494223Y-31957654D01*
X38462983Y-31932017D01*
X38437346Y-31900777D01*
X38418296Y-31865138D01*
X38406565Y-31826468D01*
X38402000Y-31780112D01*
X38402000Y-30703888D01*
X38406565Y-30657532D01*
X38418296Y-30618862D01*
X38437346Y-30583223D01*
X38462983Y-30551983D01*
X38494223Y-30526346D01*
X38529862Y-30507296D01*
X38568532Y-30495565D01*
X38614888Y-30491000D01*
X39266112Y-30491000D01*
X39312468Y-30495565D01*
G37*
G36*
X41187468Y-30495565D02*
G01*
X41226138Y-30507296D01*
X41261777Y-30526346D01*
X41293017Y-30551983D01*
X41318654Y-30583223D01*
X41337704Y-30618862D01*
X41349435Y-30657532D01*
X41354000Y-30703888D01*
X41354000Y-31780112D01*
X41349435Y-31826468D01*
X41337704Y-31865138D01*
X41318654Y-31900777D01*
X41293017Y-31932017D01*
X41261777Y-31957654D01*
X41226138Y-31976704D01*
X41187468Y-31988435D01*
X41141112Y-31993000D01*
X40489888Y-31993000D01*
X40443532Y-31988435D01*
X40404862Y-31976704D01*
X40369223Y-31957654D01*
X40337983Y-31932017D01*
X40312346Y-31900777D01*
X40293296Y-31865138D01*
X40281565Y-31826468D01*
X40277000Y-31780112D01*
X40277000Y-30703888D01*
X40281565Y-30657532D01*
X40293296Y-30618862D01*
X40312346Y-30583223D01*
X40337983Y-30551983D01*
X40369223Y-30526346D01*
X40404862Y-30507296D01*
X40443532Y-30495565D01*
X40489888Y-30491000D01*
X41141112Y-30491000D01*
X41187468Y-30495565D01*
G37*
G36*
X65257938Y-30873716D02*
G01*
X65278557Y-30879971D01*
X65297553Y-30890124D01*
X65314208Y-30903792D01*
X65327876Y-30920447D01*
X65338029Y-30939443D01*
X65344284Y-30960062D01*
X65347000Y-30987640D01*
X65347000Y-31496360D01*
X65344284Y-31523938D01*
X65338029Y-31544557D01*
X65327876Y-31563553D01*
X65314208Y-31580208D01*
X65297553Y-31593876D01*
X65278557Y-31604029D01*
X65257938Y-31610284D01*
X65230360Y-31613000D01*
X64771640Y-31613000D01*
X64744062Y-31610284D01*
X64723443Y-31604029D01*
X64704447Y-31593876D01*
X64687792Y-31580208D01*
X64674124Y-31563553D01*
X64663971Y-31544557D01*
X64657716Y-31523938D01*
X64655000Y-31496360D01*
X64655000Y-30987640D01*
X64657716Y-30960062D01*
X64663971Y-30939443D01*
X64674124Y-30920447D01*
X64687792Y-30903792D01*
X64704447Y-30890124D01*
X64723443Y-30879971D01*
X64744062Y-30873716D01*
X64771640Y-30871000D01*
X65230360Y-30871000D01*
X65257938Y-30873716D01*
G37*
G36*
X64287938Y-30873716D02*
G01*
X64308557Y-30879971D01*
X64327553Y-30890124D01*
X64344208Y-30903792D01*
X64357876Y-30920447D01*
X64368029Y-30939443D01*
X64374284Y-30960062D01*
X64377000Y-30987640D01*
X64377000Y-31496360D01*
X64374284Y-31523938D01*
X64368029Y-31544557D01*
X64357876Y-31563553D01*
X64344208Y-31580208D01*
X64327553Y-31593876D01*
X64308557Y-31604029D01*
X64287938Y-31610284D01*
X64260360Y-31613000D01*
X63801640Y-31613000D01*
X63774062Y-31610284D01*
X63753443Y-31604029D01*
X63734447Y-31593876D01*
X63717792Y-31580208D01*
X63704124Y-31563553D01*
X63693971Y-31544557D01*
X63687716Y-31523938D01*
X63685000Y-31496360D01*
X63685000Y-30987640D01*
X63687716Y-30960062D01*
X63693971Y-30939443D01*
X63704124Y-30920447D01*
X63717792Y-30903792D01*
X63734447Y-30890124D01*
X63753443Y-30879971D01*
X63774062Y-30873716D01*
X63801640Y-30871000D01*
X64260360Y-30871000D01*
X64287938Y-30873716D01*
G37*
G36*
X86063766Y-29559899D02*
G01*
X86195888Y-29614626D01*
X86195890Y-29614627D01*
X86314798Y-29694079D01*
X86415921Y-29795202D01*
X86415922Y-29795204D01*
X86495374Y-29914112D01*
X86550101Y-30046234D01*
X86578000Y-30186494D01*
X86578000Y-30329506D01*
X86550101Y-30469766D01*
X86516045Y-30551983D01*
X86495373Y-30601890D01*
X86415921Y-30720798D01*
X86314798Y-30821921D01*
X86195890Y-30901373D01*
X86195889Y-30901374D01*
X86195888Y-30901374D01*
X86063766Y-30956101D01*
X85923506Y-30984000D01*
X85780494Y-30984000D01*
X85640234Y-30956101D01*
X85508112Y-30901374D01*
X85508111Y-30901374D01*
X85508110Y-30901373D01*
X85389202Y-30821921D01*
X85288079Y-30720798D01*
X85208627Y-30601890D01*
X85187955Y-30551983D01*
X85153899Y-30469766D01*
X85126000Y-30329506D01*
X85126000Y-30186494D01*
X85153899Y-30046234D01*
X85208626Y-29914112D01*
X85288078Y-29795204D01*
X85288079Y-29795202D01*
X85389202Y-29694079D01*
X85508110Y-29614627D01*
X85508112Y-29614626D01*
X85640234Y-29559899D01*
X85780494Y-29532000D01*
X85923506Y-29532000D01*
X86063766Y-29559899D01*
G37*
G36*
X39491000Y-29226000D02*
G01*
X38489000Y-29226000D01*
X38489000Y-27924000D01*
X39491000Y-27924000D01*
X39491000Y-29226000D01*
G37*
G36*
X42791000Y-29226000D02*
G01*
X41789000Y-29226000D01*
X41789000Y-27924000D01*
X42791000Y-27924000D01*
X42791000Y-29226000D01*
G37*
G36*
X86063766Y-27559899D02*
G01*
X86195888Y-27614626D01*
X86195890Y-27614627D01*
X86314798Y-27694079D01*
X86415921Y-27795202D01*
X86415922Y-27795204D01*
X86495374Y-27914112D01*
X86550101Y-28046234D01*
X86578000Y-28186494D01*
X86578000Y-28329506D01*
X86550101Y-28469766D01*
X86495374Y-28601888D01*
X86495373Y-28601890D01*
X86415921Y-28720798D01*
X86314798Y-28821921D01*
X86195890Y-28901373D01*
X86195889Y-28901374D01*
X86195888Y-28901374D01*
X86063766Y-28956101D01*
X85923506Y-28984000D01*
X85780494Y-28984000D01*
X85640234Y-28956101D01*
X85508112Y-28901374D01*
X85508111Y-28901374D01*
X85508110Y-28901373D01*
X85389202Y-28821921D01*
X85288079Y-28720798D01*
X85208627Y-28601890D01*
X85208626Y-28601888D01*
X85153899Y-28469766D01*
X85126000Y-28329506D01*
X85126000Y-28186494D01*
X85153899Y-28046234D01*
X85208626Y-27914112D01*
X85288078Y-27795204D01*
X85288079Y-27795202D01*
X85389202Y-27694079D01*
X85508110Y-27614627D01*
X85508112Y-27614626D01*
X85640234Y-27559899D01*
X85780494Y-27532000D01*
X85923506Y-27532000D01*
X86063766Y-27559899D01*
G37*
G36*
X40709468Y-25288565D02*
G01*
X40748138Y-25300296D01*
X40783777Y-25319346D01*
X40815017Y-25344983D01*
X40840654Y-25376223D01*
X40859704Y-25411862D01*
X40871435Y-25450532D01*
X40876000Y-25496888D01*
X40876000Y-26573112D01*
X40871435Y-26619468D01*
X40859704Y-26658138D01*
X40840654Y-26693777D01*
X40815017Y-26725017D01*
X40783777Y-26750654D01*
X40748138Y-26769704D01*
X40709468Y-26781435D01*
X40663112Y-26786000D01*
X40011888Y-26786000D01*
X39965532Y-26781435D01*
X39926862Y-26769704D01*
X39891223Y-26750654D01*
X39859983Y-26725017D01*
X39834346Y-26693777D01*
X39815296Y-26658138D01*
X39803565Y-26619468D01*
X39799000Y-26573112D01*
X39799000Y-25496888D01*
X39803565Y-25450532D01*
X39815296Y-25411862D01*
X39834346Y-25376223D01*
X39859983Y-25344983D01*
X39891223Y-25319346D01*
X39926862Y-25300296D01*
X39965532Y-25288565D01*
X40011888Y-25284000D01*
X40663112Y-25284000D01*
X40709468Y-25288565D01*
G37*
G36*
X42584468Y-25288565D02*
G01*
X42623138Y-25300296D01*
X42658777Y-25319346D01*
X42690017Y-25344983D01*
X42715654Y-25376223D01*
X42734704Y-25411862D01*
X42746435Y-25450532D01*
X42751000Y-25496888D01*
X42751000Y-26573112D01*
X42746435Y-26619468D01*
X42734704Y-26658138D01*
X42715654Y-26693777D01*
X42690017Y-26725017D01*
X42658777Y-26750654D01*
X42623138Y-26769704D01*
X42584468Y-26781435D01*
X42538112Y-26786000D01*
X41886888Y-26786000D01*
X41840532Y-26781435D01*
X41801862Y-26769704D01*
X41766223Y-26750654D01*
X41734983Y-26725017D01*
X41709346Y-26693777D01*
X41690296Y-26658138D01*
X41678565Y-26619468D01*
X41674000Y-26573112D01*
X41674000Y-25496888D01*
X41678565Y-25450532D01*
X41690296Y-25411862D01*
X41709346Y-25376223D01*
X41734983Y-25344983D01*
X41766223Y-25319346D01*
X41801862Y-25300296D01*
X41840532Y-25288565D01*
X41886888Y-25284000D01*
X42538112Y-25284000D01*
X42584468Y-25288565D01*
G37*
G36*
X50211000Y-26476000D02*
G01*
X46309000Y-26476000D01*
X46309000Y-24374000D01*
X50211000Y-24374000D01*
X50211000Y-26476000D01*
G37*
M02*
