G04 #@! TF.GenerationSoftware,KiCad,Pcbnew,(5.1.5-0-10_14)*
G04 #@! TF.CreationDate,2020-05-27T20:18:48+02:00*
G04 #@! TF.ProjectId,roxie-lcd,726f7869-652d-46c6-9364-2e6b69636164,rev?*
G04 #@! TF.SameCoordinates,Original*
G04 #@! TF.FileFunction,Soldermask,Bot*
G04 #@! TF.FilePolarity,Negative*
%FSLAX46Y46*%
G04 Gerber Fmt 4.6, Leading zero omitted, Abs format (unit mm)*
G04 Created by KiCad (PCBNEW (5.1.5-0-10_14)) date 2020-05-27 20:18:48*
%MOMM*%
%LPD*%
G04 APERTURE LIST*
%ADD10C,0.100000*%
G04 APERTURE END LIST*
D10*
G36*
X86578000Y-48984000D02*
G01*
X85126000Y-48984000D01*
X85126000Y-47532000D01*
X86578000Y-47532000D01*
X86578000Y-48984000D01*
G37*
G36*
X86063766Y-45559899D02*
G01*
X86195888Y-45614626D01*
X86195890Y-45614627D01*
X86314798Y-45694079D01*
X86415921Y-45795202D01*
X86415922Y-45795204D01*
X86495374Y-45914112D01*
X86550101Y-46046234D01*
X86578000Y-46186494D01*
X86578000Y-46329506D01*
X86550101Y-46469766D01*
X86495374Y-46601888D01*
X86495373Y-46601890D01*
X86415921Y-46720798D01*
X86314798Y-46821921D01*
X86195890Y-46901373D01*
X86195889Y-46901374D01*
X86195888Y-46901374D01*
X86063766Y-46956101D01*
X85923506Y-46984000D01*
X85780494Y-46984000D01*
X85640234Y-46956101D01*
X85508112Y-46901374D01*
X85508111Y-46901374D01*
X85508110Y-46901373D01*
X85389202Y-46821921D01*
X85288079Y-46720798D01*
X85208627Y-46601890D01*
X85208626Y-46601888D01*
X85153899Y-46469766D01*
X85126000Y-46329506D01*
X85126000Y-46186494D01*
X85153899Y-46046234D01*
X85208626Y-45914112D01*
X85288078Y-45795204D01*
X85288079Y-45795202D01*
X85389202Y-45694079D01*
X85508110Y-45614627D01*
X85508112Y-45614626D01*
X85640234Y-45559899D01*
X85780494Y-45532000D01*
X85923506Y-45532000D01*
X86063766Y-45559899D01*
G37*
G36*
X86063766Y-43559899D02*
G01*
X86195888Y-43614626D01*
X86195890Y-43614627D01*
X86314798Y-43694079D01*
X86415921Y-43795202D01*
X86415922Y-43795204D01*
X86495374Y-43914112D01*
X86550101Y-44046234D01*
X86578000Y-44186494D01*
X86578000Y-44329506D01*
X86550101Y-44469766D01*
X86495374Y-44601888D01*
X86495373Y-44601890D01*
X86415921Y-44720798D01*
X86314798Y-44821921D01*
X86195890Y-44901373D01*
X86195889Y-44901374D01*
X86195888Y-44901374D01*
X86063766Y-44956101D01*
X85923506Y-44984000D01*
X85780494Y-44984000D01*
X85640234Y-44956101D01*
X85508112Y-44901374D01*
X85508111Y-44901374D01*
X85508110Y-44901373D01*
X85389202Y-44821921D01*
X85288079Y-44720798D01*
X85208627Y-44601890D01*
X85208626Y-44601888D01*
X85153899Y-44469766D01*
X85126000Y-44329506D01*
X85126000Y-44186494D01*
X85153899Y-44046234D01*
X85208626Y-43914112D01*
X85288078Y-43795204D01*
X85288079Y-43795202D01*
X85389202Y-43694079D01*
X85508110Y-43614627D01*
X85508112Y-43614626D01*
X85640234Y-43559899D01*
X85780494Y-43532000D01*
X85923506Y-43532000D01*
X86063766Y-43559899D01*
G37*
G36*
X86063766Y-41559899D02*
G01*
X86195888Y-41614626D01*
X86195890Y-41614627D01*
X86314798Y-41694079D01*
X86415921Y-41795202D01*
X86415922Y-41795204D01*
X86495374Y-41914112D01*
X86550101Y-42046234D01*
X86578000Y-42186494D01*
X86578000Y-42329506D01*
X86550101Y-42469766D01*
X86495374Y-42601888D01*
X86495373Y-42601890D01*
X86415921Y-42720798D01*
X86314798Y-42821921D01*
X86195890Y-42901373D01*
X86195889Y-42901374D01*
X86195888Y-42901374D01*
X86063766Y-42956101D01*
X85923506Y-42984000D01*
X85780494Y-42984000D01*
X85640234Y-42956101D01*
X85508112Y-42901374D01*
X85508111Y-42901374D01*
X85508110Y-42901373D01*
X85389202Y-42821921D01*
X85288079Y-42720798D01*
X85208627Y-42601890D01*
X85208626Y-42601888D01*
X85153899Y-42469766D01*
X85126000Y-42329506D01*
X85126000Y-42186494D01*
X85153899Y-42046234D01*
X85208626Y-41914112D01*
X85288078Y-41795204D01*
X85288079Y-41795202D01*
X85389202Y-41694079D01*
X85508110Y-41614627D01*
X85508112Y-41614626D01*
X85640234Y-41559899D01*
X85780494Y-41532000D01*
X85923506Y-41532000D01*
X86063766Y-41559899D01*
G37*
G36*
X86063766Y-39559899D02*
G01*
X86195888Y-39614626D01*
X86195890Y-39614627D01*
X86314798Y-39694079D01*
X86415921Y-39795202D01*
X86415922Y-39795204D01*
X86495374Y-39914112D01*
X86550101Y-40046234D01*
X86578000Y-40186494D01*
X86578000Y-40329506D01*
X86550101Y-40469766D01*
X86495374Y-40601888D01*
X86495373Y-40601890D01*
X86415921Y-40720798D01*
X86314798Y-40821921D01*
X86195890Y-40901373D01*
X86195889Y-40901374D01*
X86195888Y-40901374D01*
X86063766Y-40956101D01*
X85923506Y-40984000D01*
X85780494Y-40984000D01*
X85640234Y-40956101D01*
X85508112Y-40901374D01*
X85508111Y-40901374D01*
X85508110Y-40901373D01*
X85389202Y-40821921D01*
X85288079Y-40720798D01*
X85208627Y-40601890D01*
X85208626Y-40601888D01*
X85153899Y-40469766D01*
X85126000Y-40329506D01*
X85126000Y-40186494D01*
X85153899Y-40046234D01*
X85208626Y-39914112D01*
X85288078Y-39795204D01*
X85288079Y-39795202D01*
X85389202Y-39694079D01*
X85508110Y-39614627D01*
X85508112Y-39614626D01*
X85640234Y-39559899D01*
X85780494Y-39532000D01*
X85923506Y-39532000D01*
X86063766Y-39559899D01*
G37*
G36*
X86063766Y-37559899D02*
G01*
X86195888Y-37614626D01*
X86195890Y-37614627D01*
X86314798Y-37694079D01*
X86415921Y-37795202D01*
X86415922Y-37795204D01*
X86495374Y-37914112D01*
X86550101Y-38046234D01*
X86578000Y-38186494D01*
X86578000Y-38329506D01*
X86550101Y-38469766D01*
X86495374Y-38601888D01*
X86495373Y-38601890D01*
X86415921Y-38720798D01*
X86314798Y-38821921D01*
X86195890Y-38901373D01*
X86195889Y-38901374D01*
X86195888Y-38901374D01*
X86063766Y-38956101D01*
X85923506Y-38984000D01*
X85780494Y-38984000D01*
X85640234Y-38956101D01*
X85508112Y-38901374D01*
X85508111Y-38901374D01*
X85508110Y-38901373D01*
X85389202Y-38821921D01*
X85288079Y-38720798D01*
X85208627Y-38601890D01*
X85208626Y-38601888D01*
X85153899Y-38469766D01*
X85126000Y-38329506D01*
X85126000Y-38186494D01*
X85153899Y-38046234D01*
X85208626Y-37914112D01*
X85288078Y-37795204D01*
X85288079Y-37795202D01*
X85389202Y-37694079D01*
X85508110Y-37614627D01*
X85508112Y-37614626D01*
X85640234Y-37559899D01*
X85780494Y-37532000D01*
X85923506Y-37532000D01*
X86063766Y-37559899D01*
G37*
G36*
X86063766Y-35559899D02*
G01*
X86195888Y-35614626D01*
X86195890Y-35614627D01*
X86314798Y-35694079D01*
X86415921Y-35795202D01*
X86415922Y-35795204D01*
X86495374Y-35914112D01*
X86550101Y-36046234D01*
X86578000Y-36186494D01*
X86578000Y-36329506D01*
X86550101Y-36469766D01*
X86495374Y-36601888D01*
X86495373Y-36601890D01*
X86415921Y-36720798D01*
X86314798Y-36821921D01*
X86195890Y-36901373D01*
X86195889Y-36901374D01*
X86195888Y-36901374D01*
X86063766Y-36956101D01*
X85923506Y-36984000D01*
X85780494Y-36984000D01*
X85640234Y-36956101D01*
X85508112Y-36901374D01*
X85508111Y-36901374D01*
X85508110Y-36901373D01*
X85389202Y-36821921D01*
X85288079Y-36720798D01*
X85208627Y-36601890D01*
X85208626Y-36601888D01*
X85153899Y-36469766D01*
X85126000Y-36329506D01*
X85126000Y-36186494D01*
X85153899Y-36046234D01*
X85208626Y-35914112D01*
X85288078Y-35795204D01*
X85288079Y-35795202D01*
X85389202Y-35694079D01*
X85508110Y-35614627D01*
X85508112Y-35614626D01*
X85640234Y-35559899D01*
X85780494Y-35532000D01*
X85923506Y-35532000D01*
X86063766Y-35559899D01*
G37*
G36*
X86063766Y-33559899D02*
G01*
X86195888Y-33614626D01*
X86195890Y-33614627D01*
X86314798Y-33694079D01*
X86415921Y-33795202D01*
X86415922Y-33795204D01*
X86495374Y-33914112D01*
X86550101Y-34046234D01*
X86578000Y-34186494D01*
X86578000Y-34329506D01*
X86550101Y-34469766D01*
X86495374Y-34601888D01*
X86495373Y-34601890D01*
X86415921Y-34720798D01*
X86314798Y-34821921D01*
X86195890Y-34901373D01*
X86195889Y-34901374D01*
X86195888Y-34901374D01*
X86063766Y-34956101D01*
X85923506Y-34984000D01*
X85780494Y-34984000D01*
X85640234Y-34956101D01*
X85508112Y-34901374D01*
X85508111Y-34901374D01*
X85508110Y-34901373D01*
X85389202Y-34821921D01*
X85288079Y-34720798D01*
X85208627Y-34601890D01*
X85208626Y-34601888D01*
X85153899Y-34469766D01*
X85126000Y-34329506D01*
X85126000Y-34186494D01*
X85153899Y-34046234D01*
X85208626Y-33914112D01*
X85288078Y-33795204D01*
X85288079Y-33795202D01*
X85389202Y-33694079D01*
X85508110Y-33614627D01*
X85508112Y-33614626D01*
X85640234Y-33559899D01*
X85780494Y-33532000D01*
X85923506Y-33532000D01*
X86063766Y-33559899D01*
G37*
G36*
X86063766Y-31559899D02*
G01*
X86195888Y-31614626D01*
X86195890Y-31614627D01*
X86314798Y-31694079D01*
X86415921Y-31795202D01*
X86415922Y-31795204D01*
X86495374Y-31914112D01*
X86550101Y-32046234D01*
X86578000Y-32186494D01*
X86578000Y-32329506D01*
X86550101Y-32469766D01*
X86495374Y-32601888D01*
X86495373Y-32601890D01*
X86415921Y-32720798D01*
X86314798Y-32821921D01*
X86195890Y-32901373D01*
X86195889Y-32901374D01*
X86195888Y-32901374D01*
X86063766Y-32956101D01*
X85923506Y-32984000D01*
X85780494Y-32984000D01*
X85640234Y-32956101D01*
X85508112Y-32901374D01*
X85508111Y-32901374D01*
X85508110Y-32901373D01*
X85389202Y-32821921D01*
X85288079Y-32720798D01*
X85208627Y-32601890D01*
X85208626Y-32601888D01*
X85153899Y-32469766D01*
X85126000Y-32329506D01*
X85126000Y-32186494D01*
X85153899Y-32046234D01*
X85208626Y-31914112D01*
X85288078Y-31795204D01*
X85288079Y-31795202D01*
X85389202Y-31694079D01*
X85508110Y-31614627D01*
X85508112Y-31614626D01*
X85640234Y-31559899D01*
X85780494Y-31532000D01*
X85923506Y-31532000D01*
X86063766Y-31559899D01*
G37*
G36*
X86063766Y-29559899D02*
G01*
X86195888Y-29614626D01*
X86195890Y-29614627D01*
X86314798Y-29694079D01*
X86415921Y-29795202D01*
X86415922Y-29795204D01*
X86495374Y-29914112D01*
X86550101Y-30046234D01*
X86578000Y-30186494D01*
X86578000Y-30329506D01*
X86550101Y-30469766D01*
X86495374Y-30601888D01*
X86495373Y-30601890D01*
X86415921Y-30720798D01*
X86314798Y-30821921D01*
X86195890Y-30901373D01*
X86195889Y-30901374D01*
X86195888Y-30901374D01*
X86063766Y-30956101D01*
X85923506Y-30984000D01*
X85780494Y-30984000D01*
X85640234Y-30956101D01*
X85508112Y-30901374D01*
X85508111Y-30901374D01*
X85508110Y-30901373D01*
X85389202Y-30821921D01*
X85288079Y-30720798D01*
X85208627Y-30601890D01*
X85208626Y-30601888D01*
X85153899Y-30469766D01*
X85126000Y-30329506D01*
X85126000Y-30186494D01*
X85153899Y-30046234D01*
X85208626Y-29914112D01*
X85288078Y-29795204D01*
X85288079Y-29795202D01*
X85389202Y-29694079D01*
X85508110Y-29614627D01*
X85508112Y-29614626D01*
X85640234Y-29559899D01*
X85780494Y-29532000D01*
X85923506Y-29532000D01*
X86063766Y-29559899D01*
G37*
G36*
X86063766Y-27559899D02*
G01*
X86195888Y-27614626D01*
X86195890Y-27614627D01*
X86314798Y-27694079D01*
X86415921Y-27795202D01*
X86415922Y-27795204D01*
X86495374Y-27914112D01*
X86550101Y-28046234D01*
X86578000Y-28186494D01*
X86578000Y-28329506D01*
X86550101Y-28469766D01*
X86495374Y-28601888D01*
X86495373Y-28601890D01*
X86415921Y-28720798D01*
X86314798Y-28821921D01*
X86195890Y-28901373D01*
X86195889Y-28901374D01*
X86195888Y-28901374D01*
X86063766Y-28956101D01*
X85923506Y-28984000D01*
X85780494Y-28984000D01*
X85640234Y-28956101D01*
X85508112Y-28901374D01*
X85508111Y-28901374D01*
X85508110Y-28901373D01*
X85389202Y-28821921D01*
X85288079Y-28720798D01*
X85208627Y-28601890D01*
X85208626Y-28601888D01*
X85153899Y-28469766D01*
X85126000Y-28329506D01*
X85126000Y-28186494D01*
X85153899Y-28046234D01*
X85208626Y-27914112D01*
X85288078Y-27795204D01*
X85288079Y-27795202D01*
X85389202Y-27694079D01*
X85508110Y-27614627D01*
X85508112Y-27614626D01*
X85640234Y-27559899D01*
X85780494Y-27532000D01*
X85923506Y-27532000D01*
X86063766Y-27559899D01*
G37*
M02*
