G04 #@! TF.GenerationSoftware,KiCad,Pcbnew,(5.1.5-0-10_14)*
G04 #@! TF.CreationDate,2020-05-27T20:18:48+02:00*
G04 #@! TF.ProjectId,roxie-lcd,726f7869-652d-46c6-9364-2e6b69636164,rev?*
G04 #@! TF.SameCoordinates,Original*
G04 #@! TF.FileFunction,Legend,Top*
G04 #@! TF.FilePolarity,Positive*
%FSLAX46Y46*%
G04 Gerber Fmt 4.6, Leading zero omitted, Abs format (unit mm)*
G04 Created by KiCad (PCBNEW (5.1.5-0-10_14)) date 2020-05-27 20:18:48*
%MOMM*%
%LPD*%
G04 APERTURE LIST*
%ADD10C,0.120000*%
%ADD11C,0.150000*%
G04 APERTURE END LIST*
D10*
X19050000Y-55880000D02*
X19050000Y-58420000D01*
X34544000Y-55880000D02*
X19050000Y-55880000D01*
X34544000Y-21844000D02*
X34544000Y-55880000D01*
X19050000Y-21844000D02*
X34544000Y-21844000D01*
X19050000Y-20320000D02*
X19050000Y-21844000D01*
X19050000Y-19050000D02*
X19050000Y-20320000D01*
X19050000Y-19050000D02*
X88900000Y-19050000D01*
X88900000Y-58420000D02*
X19050000Y-58420000D01*
X88900000Y-19050000D02*
X88900000Y-58420000D01*
X86912000Y-49318000D02*
X85852000Y-49318000D01*
X86912000Y-48258000D02*
X86912000Y-49318000D01*
X86912000Y-47258000D02*
X84792000Y-47258000D01*
X84792000Y-47258000D02*
X84792000Y-27198000D01*
X86912000Y-47258000D02*
X86912000Y-27198000D01*
X86912000Y-27198000D02*
X84792000Y-27198000D01*
X44850000Y-32675000D02*
X44850000Y-26665000D01*
X51670000Y-30425000D02*
X51670000Y-26665000D01*
X44850000Y-26665000D02*
X46110000Y-26665000D01*
X51670000Y-26665000D02*
X50410000Y-26665000D01*
X72261000Y-43144221D02*
X72261000Y-43469779D01*
X73281000Y-43144221D02*
X73281000Y-43469779D01*
X46865000Y-52232779D02*
X46865000Y-51907221D01*
X45845000Y-52232779D02*
X45845000Y-51907221D01*
X44325000Y-52232779D02*
X44325000Y-51907221D01*
X43305000Y-52232779D02*
X43305000Y-51907221D01*
X45620000Y-53760000D02*
X45620000Y-56045000D01*
X47090000Y-53760000D02*
X45620000Y-53760000D01*
X47090000Y-56045000D02*
X47090000Y-53760000D01*
X43080000Y-53760000D02*
X43080000Y-56045000D01*
X44550000Y-53760000D02*
X43080000Y-53760000D01*
X44550000Y-56045000D02*
X44550000Y-53760000D01*
X42890000Y-29575000D02*
X38990000Y-29575000D01*
X42890000Y-27575000D02*
X38990000Y-27575000D01*
X42890000Y-29575000D02*
X42890000Y-27575000D01*
X63896000Y-40567000D02*
X63896000Y-41857000D01*
X63446000Y-40567000D02*
X63896000Y-40567000D01*
X63446000Y-40117000D02*
X63446000Y-40567000D01*
X63446000Y-33347000D02*
X63896000Y-33347000D01*
X63446000Y-33797000D02*
X63446000Y-33347000D01*
X70666000Y-40567000D02*
X70216000Y-40567000D01*
X70666000Y-40117000D02*
X70666000Y-40567000D01*
X70666000Y-33347000D02*
X70216000Y-33347000D01*
X70666000Y-33797000D02*
X70666000Y-33347000D01*
X70106000Y-44047000D02*
X64356000Y-44047000D01*
X70106000Y-47647000D02*
X70106000Y-44047000D01*
X64356000Y-47647000D02*
X70106000Y-47647000D01*
X39619422Y-31952000D02*
X40136578Y-31952000D01*
X39619422Y-30532000D02*
X40136578Y-30532000D01*
X46613578Y-34215000D02*
X46096422Y-34215000D01*
X46613578Y-35635000D02*
X46096422Y-35635000D01*
X41016422Y-26745000D02*
X41533578Y-26745000D01*
X41016422Y-25325000D02*
X41533578Y-25325000D01*
D11*
X85518666Y-49770380D02*
X85518666Y-50484666D01*
X85471047Y-50627523D01*
X85375809Y-50722761D01*
X85232952Y-50770380D01*
X85137714Y-50770380D01*
X85947238Y-49865619D02*
X85994857Y-49818000D01*
X86090095Y-49770380D01*
X86328190Y-49770380D01*
X86423428Y-49818000D01*
X86471047Y-49865619D01*
X86518666Y-49960857D01*
X86518666Y-50056095D01*
X86471047Y-50198952D01*
X85899619Y-50770380D01*
X86518666Y-50770380D01*
X52792380Y-28701904D02*
X53601904Y-28701904D01*
X53697142Y-28654285D01*
X53744761Y-28606666D01*
X53792380Y-28511428D01*
X53792380Y-28320952D01*
X53744761Y-28225714D01*
X53697142Y-28178095D01*
X53601904Y-28130476D01*
X52792380Y-28130476D01*
X53792380Y-27130476D02*
X53792380Y-27701904D01*
X53792380Y-27416190D02*
X52792380Y-27416190D01*
X52935238Y-27511428D01*
X53030476Y-27606666D01*
X53078095Y-27701904D01*
X73223380Y-40298666D02*
X72747190Y-40632000D01*
X73223380Y-40870095D02*
X72223380Y-40870095D01*
X72223380Y-40489142D01*
X72271000Y-40393904D01*
X72318619Y-40346285D01*
X72413857Y-40298666D01*
X72556714Y-40298666D01*
X72651952Y-40346285D01*
X72699571Y-40393904D01*
X72747190Y-40489142D01*
X72747190Y-40870095D01*
X72556714Y-39441523D02*
X73223380Y-39441523D01*
X72175761Y-39679619D02*
X72890047Y-39917714D01*
X72890047Y-39298666D01*
X48712380Y-52236666D02*
X48236190Y-52570000D01*
X48712380Y-52808095D02*
X47712380Y-52808095D01*
X47712380Y-52427142D01*
X47760000Y-52331904D01*
X47807619Y-52284285D01*
X47902857Y-52236666D01*
X48045714Y-52236666D01*
X48140952Y-52284285D01*
X48188571Y-52331904D01*
X48236190Y-52427142D01*
X48236190Y-52808095D01*
X47807619Y-51855714D02*
X47760000Y-51808095D01*
X47712380Y-51712857D01*
X47712380Y-51474761D01*
X47760000Y-51379523D01*
X47807619Y-51331904D01*
X47902857Y-51284285D01*
X47998095Y-51284285D01*
X48140952Y-51331904D01*
X48712380Y-51903333D01*
X48712380Y-51284285D01*
X42362380Y-52236666D02*
X41886190Y-52570000D01*
X42362380Y-52808095D02*
X41362380Y-52808095D01*
X41362380Y-52427142D01*
X41410000Y-52331904D01*
X41457619Y-52284285D01*
X41552857Y-52236666D01*
X41695714Y-52236666D01*
X41790952Y-52284285D01*
X41838571Y-52331904D01*
X41886190Y-52427142D01*
X41886190Y-52808095D01*
X42362380Y-51284285D02*
X42362380Y-51855714D01*
X42362380Y-51570000D02*
X41362380Y-51570000D01*
X41505238Y-51665238D01*
X41600476Y-51760476D01*
X41648095Y-51855714D01*
X48712380Y-55983095D02*
X47712380Y-55983095D01*
X47712380Y-55745000D01*
X47760000Y-55602142D01*
X47855238Y-55506904D01*
X47950476Y-55459285D01*
X48140952Y-55411666D01*
X48283809Y-55411666D01*
X48474285Y-55459285D01*
X48569523Y-55506904D01*
X48664761Y-55602142D01*
X48712380Y-55745000D01*
X48712380Y-55983095D01*
X47712380Y-55078333D02*
X47712380Y-54459285D01*
X48093333Y-54792619D01*
X48093333Y-54649761D01*
X48140952Y-54554523D01*
X48188571Y-54506904D01*
X48283809Y-54459285D01*
X48521904Y-54459285D01*
X48617142Y-54506904D01*
X48664761Y-54554523D01*
X48712380Y-54649761D01*
X48712380Y-54935476D01*
X48664761Y-55030714D01*
X48617142Y-55078333D01*
X42362380Y-55983095D02*
X41362380Y-55983095D01*
X41362380Y-55745000D01*
X41410000Y-55602142D01*
X41505238Y-55506904D01*
X41600476Y-55459285D01*
X41790952Y-55411666D01*
X41933809Y-55411666D01*
X42124285Y-55459285D01*
X42219523Y-55506904D01*
X42314761Y-55602142D01*
X42362380Y-55745000D01*
X42362380Y-55983095D01*
X41457619Y-55030714D02*
X41410000Y-54983095D01*
X41362380Y-54887857D01*
X41362380Y-54649761D01*
X41410000Y-54554523D01*
X41457619Y-54506904D01*
X41552857Y-54459285D01*
X41648095Y-54459285D01*
X41790952Y-54506904D01*
X42362380Y-55078333D01*
X42362380Y-54459285D01*
X36091904Y-29027380D02*
X36091904Y-28027380D01*
X36330000Y-28027380D01*
X36472857Y-28075000D01*
X36568095Y-28170238D01*
X36615714Y-28265476D01*
X36663333Y-28455952D01*
X36663333Y-28598809D01*
X36615714Y-28789285D01*
X36568095Y-28884523D01*
X36472857Y-28979761D01*
X36330000Y-29027380D01*
X36091904Y-29027380D01*
X37615714Y-29027380D02*
X37044285Y-29027380D01*
X37330000Y-29027380D02*
X37330000Y-28027380D01*
X37234761Y-28170238D01*
X37139523Y-28265476D01*
X37044285Y-28313095D01*
X67683142Y-50549142D02*
X67635523Y-50596761D01*
X67492666Y-50644380D01*
X67397428Y-50644380D01*
X67254571Y-50596761D01*
X67159333Y-50501523D01*
X67111714Y-50406285D01*
X67064095Y-50215809D01*
X67064095Y-50072952D01*
X67111714Y-49882476D01*
X67159333Y-49787238D01*
X67254571Y-49692000D01*
X67397428Y-49644380D01*
X67492666Y-49644380D01*
X67635523Y-49692000D01*
X67683142Y-49739619D01*
X68635523Y-50644380D02*
X68064095Y-50644380D01*
X68349809Y-50644380D02*
X68349809Y-49644380D01*
X68254571Y-49787238D01*
X68159333Y-49882476D01*
X68064095Y-49930095D01*
X69587904Y-50644380D02*
X69016476Y-50644380D01*
X69302190Y-50644380D02*
X69302190Y-49644380D01*
X69206952Y-49787238D01*
X69111714Y-49882476D01*
X69016476Y-49930095D01*
X64508142Y-50649142D02*
X64460523Y-50696761D01*
X64317666Y-50744380D01*
X64222428Y-50744380D01*
X64079571Y-50696761D01*
X63984333Y-50601523D01*
X63936714Y-50506285D01*
X63889095Y-50315809D01*
X63889095Y-50172952D01*
X63936714Y-49982476D01*
X63984333Y-49887238D01*
X64079571Y-49792000D01*
X64222428Y-49744380D01*
X64317666Y-49744380D01*
X64460523Y-49792000D01*
X64508142Y-49839619D01*
X65460523Y-50744380D02*
X64889095Y-50744380D01*
X65174809Y-50744380D02*
X65174809Y-49744380D01*
X65079571Y-49887238D01*
X64984333Y-49982476D01*
X64889095Y-50030095D01*
X66079571Y-49744380D02*
X66174809Y-49744380D01*
X66270047Y-49792000D01*
X66317666Y-49839619D01*
X66365285Y-49934857D01*
X66412904Y-50125333D01*
X66412904Y-50363428D01*
X66365285Y-50553904D01*
X66317666Y-50649142D01*
X66270047Y-50696761D01*
X66174809Y-50744380D01*
X66079571Y-50744380D01*
X65984333Y-50696761D01*
X65936714Y-50649142D01*
X65889095Y-50553904D01*
X65841476Y-50363428D01*
X65841476Y-50125333D01*
X65889095Y-49934857D01*
X65936714Y-49839619D01*
X65984333Y-49792000D01*
X66079571Y-49744380D01*
X61698142Y-42203666D02*
X61745761Y-42251285D01*
X61793380Y-42394142D01*
X61793380Y-42489380D01*
X61745761Y-42632238D01*
X61650523Y-42727476D01*
X61555285Y-42775095D01*
X61364809Y-42822714D01*
X61221952Y-42822714D01*
X61031476Y-42775095D01*
X60936238Y-42727476D01*
X60841000Y-42632238D01*
X60793380Y-42489380D01*
X60793380Y-42394142D01*
X60841000Y-42251285D01*
X60888619Y-42203666D01*
X61793380Y-41727476D02*
X61793380Y-41537000D01*
X61745761Y-41441761D01*
X61698142Y-41394142D01*
X61555285Y-41298904D01*
X61364809Y-41251285D01*
X60983857Y-41251285D01*
X60888619Y-41298904D01*
X60841000Y-41346523D01*
X60793380Y-41441761D01*
X60793380Y-41632238D01*
X60841000Y-41727476D01*
X60888619Y-41775095D01*
X60983857Y-41822714D01*
X61221952Y-41822714D01*
X61317190Y-41775095D01*
X61364809Y-41727476D01*
X61412428Y-41632238D01*
X61412428Y-41441761D01*
X61364809Y-41346523D01*
X61317190Y-41298904D01*
X61221952Y-41251285D01*
X70064333Y-43029142D02*
X70016714Y-43076761D01*
X69873857Y-43124380D01*
X69778619Y-43124380D01*
X69635761Y-43076761D01*
X69540523Y-42981523D01*
X69492904Y-42886285D01*
X69445285Y-42695809D01*
X69445285Y-42552952D01*
X69492904Y-42362476D01*
X69540523Y-42267238D01*
X69635761Y-42172000D01*
X69778619Y-42124380D01*
X69873857Y-42124380D01*
X70016714Y-42172000D01*
X70064333Y-42219619D01*
X70635761Y-42552952D02*
X70540523Y-42505333D01*
X70492904Y-42457714D01*
X70445285Y-42362476D01*
X70445285Y-42314857D01*
X70492904Y-42219619D01*
X70540523Y-42172000D01*
X70635761Y-42124380D01*
X70826238Y-42124380D01*
X70921476Y-42172000D01*
X70969095Y-42219619D01*
X71016714Y-42314857D01*
X71016714Y-42362476D01*
X70969095Y-42457714D01*
X70921476Y-42505333D01*
X70826238Y-42552952D01*
X70635761Y-42552952D01*
X70540523Y-42600571D01*
X70492904Y-42648190D01*
X70445285Y-42743428D01*
X70445285Y-42933904D01*
X70492904Y-43029142D01*
X70540523Y-43076761D01*
X70635761Y-43124380D01*
X70826238Y-43124380D01*
X70921476Y-43076761D01*
X70969095Y-43029142D01*
X71016714Y-42933904D01*
X71016714Y-42743428D01*
X70969095Y-42648190D01*
X70921476Y-42600571D01*
X70826238Y-42552952D01*
X62888857Y-43775333D02*
X62841238Y-43727714D01*
X62793619Y-43584857D01*
X62793619Y-43489619D01*
X62841238Y-43346761D01*
X62936476Y-43251523D01*
X63031714Y-43203904D01*
X63222190Y-43156285D01*
X63365047Y-43156285D01*
X63555523Y-43203904D01*
X63650761Y-43251523D01*
X63746000Y-43346761D01*
X63793619Y-43489619D01*
X63793619Y-43584857D01*
X63746000Y-43727714D01*
X63698380Y-43775333D01*
X63793619Y-44632476D02*
X63793619Y-44442000D01*
X63746000Y-44346761D01*
X63698380Y-44299142D01*
X63555523Y-44203904D01*
X63365047Y-44156285D01*
X62984095Y-44156285D01*
X62888857Y-44203904D01*
X62841238Y-44251523D01*
X62793619Y-44346761D01*
X62793619Y-44537238D01*
X62841238Y-44632476D01*
X62888857Y-44680095D01*
X62984095Y-44727714D01*
X63222190Y-44727714D01*
X63317428Y-44680095D01*
X63365047Y-44632476D01*
X63412666Y-44537238D01*
X63412666Y-44346761D01*
X63365047Y-44251523D01*
X63317428Y-44203904D01*
X63222190Y-44156285D01*
X60658380Y-35178904D02*
X61467904Y-35178904D01*
X61563142Y-35131285D01*
X61610761Y-35083666D01*
X61658380Y-34988428D01*
X61658380Y-34797952D01*
X61610761Y-34702714D01*
X61563142Y-34655095D01*
X61467904Y-34607476D01*
X60658380Y-34607476D01*
X60753619Y-34178904D02*
X60706000Y-34131285D01*
X60658380Y-34036047D01*
X60658380Y-33797952D01*
X60706000Y-33702714D01*
X60753619Y-33655095D01*
X60848857Y-33607476D01*
X60944095Y-33607476D01*
X61086952Y-33655095D01*
X61658380Y-34226523D01*
X61658380Y-33607476D01*
X63222190Y-46323190D02*
X63698380Y-46323190D01*
X62698380Y-46656523D02*
X63222190Y-46323190D01*
X62698380Y-45989857D01*
X63698380Y-45132714D02*
X63698380Y-45704142D01*
X63698380Y-45418428D02*
X62698380Y-45418428D01*
X62841238Y-45513666D01*
X62936476Y-45608904D01*
X62984095Y-45704142D01*
X35742666Y-31170571D02*
X35409333Y-31170571D01*
X35409333Y-31694380D02*
X35409333Y-30694380D01*
X35885523Y-30694380D01*
X36599809Y-31170571D02*
X36742666Y-31218190D01*
X36790285Y-31265809D01*
X36837904Y-31361047D01*
X36837904Y-31503904D01*
X36790285Y-31599142D01*
X36742666Y-31646761D01*
X36647428Y-31694380D01*
X36266476Y-31694380D01*
X36266476Y-30694380D01*
X36599809Y-30694380D01*
X36695047Y-30742000D01*
X36742666Y-30789619D01*
X36790285Y-30884857D01*
X36790285Y-30980095D01*
X36742666Y-31075333D01*
X36695047Y-31122952D01*
X36599809Y-31170571D01*
X36266476Y-31170571D01*
X37790285Y-31694380D02*
X37218857Y-31694380D01*
X37504571Y-31694380D02*
X37504571Y-30694380D01*
X37409333Y-30837238D01*
X37314095Y-30932476D01*
X37218857Y-30980095D01*
X74298142Y-34583666D02*
X74345761Y-34631285D01*
X74393380Y-34774142D01*
X74393380Y-34869380D01*
X74345761Y-35012238D01*
X74250523Y-35107476D01*
X74155285Y-35155095D01*
X73964809Y-35202714D01*
X73821952Y-35202714D01*
X73631476Y-35155095D01*
X73536238Y-35107476D01*
X73441000Y-35012238D01*
X73393380Y-34869380D01*
X73393380Y-34774142D01*
X73441000Y-34631285D01*
X73488619Y-34583666D01*
X73393380Y-33678904D02*
X73393380Y-34155095D01*
X73869571Y-34202714D01*
X73821952Y-34155095D01*
X73774333Y-34059857D01*
X73774333Y-33821761D01*
X73821952Y-33726523D01*
X73869571Y-33678904D01*
X73964809Y-33631285D01*
X74202904Y-33631285D01*
X74298142Y-33678904D01*
X74345761Y-33726523D01*
X74393380Y-33821761D01*
X74393380Y-34059857D01*
X74345761Y-34155095D01*
X74298142Y-34202714D01*
X64349333Y-30429142D02*
X64301714Y-30476761D01*
X64158857Y-30524380D01*
X64063619Y-30524380D01*
X63920761Y-30476761D01*
X63825523Y-30381523D01*
X63777904Y-30286285D01*
X63730285Y-30095809D01*
X63730285Y-29952952D01*
X63777904Y-29762476D01*
X63825523Y-29667238D01*
X63920761Y-29572000D01*
X64063619Y-29524380D01*
X64158857Y-29524380D01*
X64301714Y-29572000D01*
X64349333Y-29619619D01*
X65206476Y-29857714D02*
X65206476Y-30524380D01*
X64968380Y-29476761D02*
X64730285Y-30191047D01*
X65349333Y-30191047D01*
X61698142Y-37758666D02*
X61745761Y-37806285D01*
X61793380Y-37949142D01*
X61793380Y-38044380D01*
X61745761Y-38187238D01*
X61650523Y-38282476D01*
X61555285Y-38330095D01*
X61364809Y-38377714D01*
X61221952Y-38377714D01*
X61031476Y-38330095D01*
X60936238Y-38282476D01*
X60841000Y-38187238D01*
X60793380Y-38044380D01*
X60793380Y-37949142D01*
X60841000Y-37806285D01*
X60888619Y-37758666D01*
X60793380Y-37425333D02*
X60793380Y-36806285D01*
X61174333Y-37139619D01*
X61174333Y-36996761D01*
X61221952Y-36901523D01*
X61269571Y-36853904D01*
X61364809Y-36806285D01*
X61602904Y-36806285D01*
X61698142Y-36853904D01*
X61745761Y-36901523D01*
X61793380Y-36996761D01*
X61793380Y-37282476D01*
X61745761Y-37377714D01*
X61698142Y-37425333D01*
X46188333Y-36932142D02*
X46140714Y-36979761D01*
X45997857Y-37027380D01*
X45902619Y-37027380D01*
X45759761Y-36979761D01*
X45664523Y-36884523D01*
X45616904Y-36789285D01*
X45569285Y-36598809D01*
X45569285Y-36455952D01*
X45616904Y-36265476D01*
X45664523Y-36170238D01*
X45759761Y-36075000D01*
X45902619Y-36027380D01*
X45997857Y-36027380D01*
X46140714Y-36075000D01*
X46188333Y-36122619D01*
X46569285Y-36122619D02*
X46616904Y-36075000D01*
X46712142Y-36027380D01*
X46950238Y-36027380D01*
X47045476Y-36075000D01*
X47093095Y-36122619D01*
X47140714Y-36217857D01*
X47140714Y-36313095D01*
X47093095Y-36455952D01*
X46521666Y-37027380D01*
X47140714Y-37027380D01*
X36663333Y-26392142D02*
X36615714Y-26439761D01*
X36472857Y-26487380D01*
X36377619Y-26487380D01*
X36234761Y-26439761D01*
X36139523Y-26344523D01*
X36091904Y-26249285D01*
X36044285Y-26058809D01*
X36044285Y-25915952D01*
X36091904Y-25725476D01*
X36139523Y-25630238D01*
X36234761Y-25535000D01*
X36377619Y-25487380D01*
X36472857Y-25487380D01*
X36615714Y-25535000D01*
X36663333Y-25582619D01*
X37615714Y-26487380D02*
X37044285Y-26487380D01*
X37330000Y-26487380D02*
X37330000Y-25487380D01*
X37234761Y-25630238D01*
X37139523Y-25725476D01*
X37044285Y-25773095D01*
M02*
